0
SECTION
2
HEADER
9
$INSUNITS
70
4
9
$ACADVER
1
AC1014
9
$HANDSEED
5
FFFF
0
ENDSEC
0
SECTION
2
TABLES
0
TABLE
2
VPORT
5
8
100
AcDbSymbolTable
0
ENDTAB
0
TABLE
2
LTYPE
5
5
100
AcDbSymbolTable
0
LTYPE
5
14
100
AcDbSymbolTableRecord
100
AcDbLinetypeTableRecord
2
BYBLOCK
70
0
0
LTYPE
5
15
100
AcDbSymbolTableRecord
100
AcDbLinetypeTableRecord
2
BYLAYER
70
0
0
ENDTAB
0
TABLE
2
LAYER
5
2
100
AcDbSymbolTable
70
2
0
LAYER
5
50
100
AcDbSymbolTableRecord
100
AcDbLayerTableRecord
2
0
70
0
6
CONTINUOUS
0
ENDTAB
0
TABLE
2
STYLE
5
3
100
AcDbSymbolTable
70
1
0
STYLE
5
11
100
AcDbSymbolTableRecord
100
AcDbTextStyleTableRecord
2
STANDARD
70
0
0
ENDTAB
0
TABLE
2
VIEW
5
6
100
AcDbSymbolTable
70
0
0
ENDTAB
0
TABLE
2
UCS
5
7
100
AcDbSymbolTable
70
0
0
ENDTAB
0
TABLE
2
APPID
5
9
100
AcDbSymbolTable
70
2
0
APPID
5
12
100
AcDbSymbolTableRecord
100
AcDbRegAppTableRecord
2
ACAD
70
0
0
ENDTAB
0
TABLE
2
DIMSTYLE
5
A
100
AcDbSymbolTable
70
1
0
ENDTAB
0
TABLE
2
BLOCK_RECORD
5
1
100
AcDbSymbolTable
70
1
0
BLOCK_RECORD
5
1F
100
AcDbSymbolTableRecord
100
AcDbBlockTableRecord
2
*MODEL_SPACE
0
BLOCK_RECORD
5
1B
100
AcDbSymbolTableRecord
100
AcDbBlockTableRecord
2
*PAPER_SPACE
0
ENDTAB
0
ENDSEC
0
SECTION
2
BLOCKS
0
BLOCK
5
20
100
AcDbEntity
100
AcDbBlockBegin
2
*MODEL_SPACE
0
ENDBLK
5
21
100
AcDbEntity
100
AcDbBlockEnd
0
BLOCK
5
1C
100
AcDbEntity
100
AcDbBlockBegin
2
*PAPER_SPACE
0
ENDBLK
5
1D
100
AcDbEntity
100
AcDbBlockEnd
0
ENDSEC
0
SECTION
2
ENTITIES
0
LWPOLYLINE
5
100
100
AcDbEntity
8
0
100
AcDbPolyline
90
57
70
1
43
0.0
10
-113.80000000000003
20
-16.53125
42
0.41421356237309537
10
-111.80000000000004
20
-18.531249999999996
10
-97.750000000000028
20
-18.53125
42
0.41421356237309537
10
-95.750000000000028
20
-16.53125
10
-95.750000000000028
20
-10.525000000000004
42
-0.41421356237309503
10
-93.750000000000028
20
-8.5250000000000057
10
-6.9812500000000099
20
-8.5250000000000057
42
-0.41421356237309631
10
-4.9812500000000002
20
-10.525000000000006
10
-4.9812500000000171
20
-14.524999999999988
42
0.99999999999999989
10
0.21874999999999867
20
-14.524999999999988
10
0.21874999999999922
20
-10.525000000000006
42
-0.41421356237309631
10
2.2187500000000075
20
-8.5250000000000075
10
6.5249999999999986
20
-8.5250000000000057
42
0.41421356237309426
10
8.5249999999999915
20
-6.5250000000000066
10
8.524999999999995
20
27.074999999999996
42
-0.41421356237309537
10
10.525
20
29.075000000000003
42
0.41421356237309764
10
12.524999999999997
20
31.075000000000003
10
12.524999999999999
20
45.125
42
0.41421356237309404
10
10.525000000000002
20
47.124999999999993
42
-0.41421356237309503
10
8.5250000000000021
20
49.125
10
8.5250000000000057
20
63.675000000000004
42
0.41421356237309404
10
6.5250000000000057
20
65.675000000000011
10
2.21875
20
65.674999999999997
42
-0.41421356237309515
10
0.21874999999999867
20
67.674999999999997
10
0.21875000000001421
20
71.675000000000011
42
0.99999999999999989
10
-4.9812500000000011
20
71.675000000000011
10
-4.9812499999999993
20
67.675000000000011
42
-0.41421356237309492
10
-6.9812500000000002
20
65.675000000000011
10
-39.48125000000001
20
65.675000000000011
42
-0.41421356237309503
10
-41.481250000000003
20
67.674999999999997
10
-41.481250000000003
20
68.437500000000028
42
0.41421356237309115
10
-43.481250000000003
20
70.437500000000028
10
-168.44999999999948
20
70.437500000000043
42
0.41421356237309631
10
-170.44999999999948
20
68.437500000000028
10
-170.44999999999948
20
67.675000000000011
42
-0.41421356237309503
10
-172.44999999999948
20
65.675000000000011
10
-202.56875000000005
20
65.675000000000011
42
-0.41421356237309503
10
-204.56875000000002
20
67.674999999999997
10
-204.56875000000002
20
71.675000000000011
42
0.99999999999999989
10
-209.76875000000007
20
71.675000000000011
10
-209.7687500000001
20
67.675000000000011
42
-0.41421356237309503
10
-211.7687500000001
20
65.675000000000011
10
-216.07500000000002
20
65.675000000000011
42
0.41421356237309631
10
-218.07500000000002
20
63.675000000000011
10
-218.07500000000002
20
-6.5249999999999986
42
0.41421356237309664
10
-216.07500000000002
20
-8.5250000000000021
10
-211.76875000000007
20
-8.5250000000000075
42
-0.41421356237309503
10
-209.76875000000007
20
-10.525
10
-209.76875000000007
20
-14.524999999999988
42
0.99999999999999989
10
-204.56875000000002
20
-14.524999999999988
10
-204.56874999999999
20
-10.525
42
-0.41421356237309503
10
-202.56875000000002
20
-8.5250000000000004
10
-130.30000000000004
20
-8.5250000000000057
42
-0.41421356237306839
10
-129.80000000000001
20
-9.0250000000000021
42
0.41421356237306511
10
-129.30000000000001
20
-9.524999999999995
10
-115.80000000000001
20
-9.5250000000000075
42
-0.41421356237309503
10
-113.80000000000003
20
-11.525
0
CIRCLE
5
101
100
AcDbEntity
8
0
100
AcDbCircle
10
-207.16875000000005
20
71.675000000000011
30
0
40
1.0999999999999943
210
0
220
-0
230
1
0
CIRCLE
5
102
100
AcDbEntity
8
0
100
AcDbCircle
10
-207.16875000000005
20
-14.524999999999988
30
0
40
1.0999999999999943
210
0
220
-0
230
1
0
CIRCLE
5
103
100
AcDbEntity
8
0
100
AcDbCircle
10
-2.3812500000000014
20
71.675000000000011
30
0
40
1.0999999999999985
210
0
220
-0
230
1
0
CIRCLE
5
104
100
AcDbEntity
8
0
100
AcDbCircle
10
-2.3812500000000014
20
-14.524999999999988
30
0
40
1.0999999999999985
210
0
220
-0
230
1
0
LWPOLYLINE
5
105
100
AcDbEntity
8
0
100
AcDbPolyline
90
57
70
1
43
0.0
10
-93.750000000000028
20
-8.5250000000000039
10
-6.9812500000000099
20
-8.5250000000000057
42
-0.41421356237309631
10
-4.9812500000000002
20
-10.525000000000006
10
-4.9812500000000171
20
-14.524999999999988
42
0.99999999999999989
10
0.21874999999999867
20
-14.524999999999988
10
0.21874999999999922
20
-10.525000000000006
42
-0.41421356237309631
10
2.2187500000000075
20
-8.5250000000000075
10
6.5249999999999986
20
-8.5250000000000057
42
0.41421356237309426
10
8.5249999999999915
20
-6.5250000000000066
10
8.524999999999995
20
27.074999999999996
42
-0.41421356237309537
10
10.525
20
29.075000000000003
42
0.41421356237309764
10
12.524999999999997
20
31.075000000000003
10
12.524999999999999
20
45.125
42
0.41421356237309404
10
10.525000000000002
20
47.124999999999993
42
-0.41421356237309503
10
8.5250000000000021
20
49.125
10
8.5250000000000057
20
63.675000000000004
42
0.41421356237309404
10
6.5250000000000057
20
65.675000000000011
10
2.21875
20
65.674999999999997
42
-0.41421356237309515
10
0.21874999999999867
20
67.674999999999997
10
0.21875000000001421
20
71.675000000000011
42
0.99999999999999989
10
-4.9812500000000011
20
71.675000000000011
10
-4.9812499999999993
20
67.675000000000011
42
-0.41421356237309492
10
-6.9812500000000002
20
65.675000000000011
10
-39.48125000000001
20
65.675000000000011
42
-0.41421356237309503
10
-41.481250000000003
20
67.674999999999997
10
-41.481250000000003
20
68.437500000000028
42
0.41421356237309115
10
-43.481250000000003
20
70.437500000000028
10
-168.44999999999948
20
70.437500000000043
42
0.41421356237309631
10
-170.44999999999948
20
68.437500000000028
10
-170.44999999999948
20
67.675000000000011
42
-0.41421356237309503
10
-172.44999999999948
20
65.675000000000011
10
-202.56875000000005
20
65.675000000000011
42
-0.41421356237309503
10
-204.56875000000002
20
67.674999999999997
10
-204.56875000000002
20
71.675000000000011
42
0.99999999999999989
10
-209.76875000000007
20
71.675000000000011
10
-209.7687500000001
20
67.675000000000011
42
-0.41421356237309503
10
-211.7687500000001
20
65.675000000000011
10
-216.07500000000002
20
65.675000000000011
42
0.41421356237309631
10
-218.07500000000002
20
63.675000000000011
10
-218.07500000000002
20
-6.5249999999999986
42
0.41421356237309664
10
-216.07500000000002
20
-8.5250000000000021
10
-211.76875000000007
20
-8.5250000000000075
42
-0.41421356237309503
10
-209.76875000000007
20
-10.525
10
-209.76875000000007
20
-14.524999999999988
42
0.99999999999999989
10
-204.56875000000002
20
-14.524999999999988
10
-204.56874999999999
20
-10.525
42
-0.41421356237309503
10
-202.56875000000002
20
-8.5250000000000004
10
-130.30000000000004
20
-8.5250000000000057
42
-0.41421356237306839
10
-129.80000000000001
20
-9.0250000000000021
42
0.41421356237306511
10
-129.30000000000001
20
-9.524999999999995
10
-115.80000000000001
20
-9.5250000000000075
42
-0.41421356237309503
10
-113.80000000000003
20
-11.525
10
-113.80000000000003
20
-16.53125
42
0.41421356237309537
10
-111.80000000000004
20
-18.531249999999996
10
-97.750000000000028
20
-18.53125
42
0.41421356237309537
10
-95.750000000000028
20
-16.53125
10
-95.750000000000028
20
-10.525000000000004
42
-0.41421356237309503
0
CIRCLE
5
106
100
AcDbEntity
8
0
100
AcDbCircle
10
-2.3812500000000014
20
-14.524999999999988
30
0
40
1.0999999999999985
210
0
220
-0
230
1
0
CIRCLE
5
107
100
AcDbEntity
8
0
100
AcDbCircle
10
-2.3812500000000014
20
71.675000000000011
30
0
40
1.0999999999999985
210
0
220
-0
230
1
0
CIRCLE
5
108
100
AcDbEntity
8
0
100
AcDbCircle
10
-207.16875000000005
20
71.675000000000011
30
0
40
1.0999999999999943
210
0
220
-0
230
1
0
CIRCLE
5
109
100
AcDbEntity
8
0
100
AcDbCircle
10
-207.16875000000005
20
-14.524999999999988
30
0
40
1.0999999999999943
210
0
220
-0
230
1
0
CIRCLE
5
110
100
AcDbEntity
8
0
100
AcDbCircle
10
8.9000000000000039
20
32.712500000000006
30
0
40
1.7500000000000004
210
-0
220
0
230
1
0
CIRCLE
5
111
100
AcDbEntity
8
0
100
AcDbCircle
10
8.9000000000000039
20
38.100000000000009
30
0
40
1.7500000000000004
210
-0
220
0
230
1
0
CIRCLE
5
112
100
AcDbEntity
8
0
100
AcDbCircle
10
8.9000000000000039
20
43.487500000000011
30
0
40
1.7500000000000004
210
-0
220
0
230
1
0
CIRCLE
5
113
100
AcDbEntity
8
0
100
AcDbCircle
10
-99.387500000000017
20
-14.906250000000005
30
0
40
1.7500000000000004
210
-0
220
0
230
1
0
CIRCLE
5
114
100
AcDbEntity
8
0
100
AcDbCircle
10
-104.77500000000003
20
-14.906250000000005
30
0
40
1.7500000000000007
210
-0
220
0
230
1
0
CIRCLE
5
115
100
AcDbEntity
8
0
100
AcDbCircle
10
-110.16250000000002
20
-14.906250000000005
30
0
40
1.7500000000000004
210
-0
220
0
230
1
0
LINE
5
116
100
AcDbEntity
8
0
100
AcDbLine
10
9.5250000000000021
20
9.5250000000000021
30
0
11
-9.5249999999999986
21
9.5250000000000021
31
0
0
LINE
5
117
100
AcDbEntity
8
0
100
AcDbLine
10
-9.5249999999999986
20
-9.5250000000000021
30
0
11
-9.5250000000000021
21
9.5250000000000021
31
0
0
LINE
5
118
100
AcDbEntity
8
0
100
AcDbLine
10
-219.07500000000002
20
28.575000000000003
30
0
11
-200.02500000000001
21
28.574999999999999
31
0
0
LINE
5
119
100
AcDbEntity
8
0
100
AcDbLine
10
-200.02500000000001
20
28.574999999999999
30
0
11
-200.02500000000001
21
9.5250000000000021
31
0
0
LINE
5
120
100
AcDbEntity
8
0
100
AcDbLine
10
-219.07500000000002
20
9.5250000000000021
30
0
11
-200.02500000000001
21
9.5249999999999986
31
0
0
ENDSEC
0
SECTION
2
OBJECTS
0
DICTIONARY
5
C
100
AcDbDictionary
3
ACAD_GROUP
350
D
3
ACAD_MLINESTYLE
350
17
0
DICTIONARY
5
D
100
AcDbDictionary
0
DICTIONARY
5
1A
330
C
100
AcDbDictionary
0
DICTIONARY
5
17
100
AcDbDictionary
0
ENDSEC
0
EOF
