G04 #@! TF.GenerationSoftware,KiCad,Pcbnew,7.0.11-7.0.11~ubuntu22.04.1*
G04 #@! TF.CreationDate,2024-05-14T18:32:02+02:00*
G04 #@! TF.ProjectId,alpha4,616c7068-6134-42e6-9b69-6361645f7063,rev?*
G04 #@! TF.SameCoordinates,Original*
G04 #@! TF.FileFunction,Soldermask,Top*
G04 #@! TF.FilePolarity,Negative*
%FSLAX46Y46*%
G04 Gerber Fmt 4.6, Leading zero omitted, Abs format (unit mm)*
G04 Created by KiCad (PCBNEW 7.0.11-7.0.11~ubuntu22.04.1) date 2024-05-14 18:32:02*
%MOMM*%
%LPD*%
G01*
G04 APERTURE LIST*
G04 Aperture macros list*
%AMRoundRect*
0 Rectangle with rounded corners*
0 $1 Rounding radius*
0 $2 $3 $4 $5 $6 $7 $8 $9 X,Y pos of 4 corners*
0 Add a 4 corners polygon primitive as box body*
4,1,4,$2,$3,$4,$5,$6,$7,$8,$9,$2,$3,0*
0 Add four circle primitives for the rounded corners*
1,1,$1+$1,$2,$3*
1,1,$1+$1,$4,$5*
1,1,$1+$1,$6,$7*
1,1,$1+$1,$8,$9*
0 Add four rect primitives between the rounded corners*
20,1,$1+$1,$2,$3,$4,$5,0*
20,1,$1+$1,$4,$5,$6,$7,0*
20,1,$1+$1,$6,$7,$8,$9,0*
20,1,$1+$1,$8,$9,$2,$3,0*%
G04 Aperture macros list end*
%ADD10C,5.000000*%
%ADD11C,2.500000*%
%ADD12R,1.800000X1.800000*%
%ADD13C,1.800000*%
%ADD14O,1.200000X1.750000*%
%ADD15RoundRect,0.250000X0.350000X0.625000X-0.350000X0.625000X-0.350000X-0.625000X0.350000X-0.625000X0*%
%ADD16RoundRect,0.450000X-0.450000X0.450000X-0.450000X-0.450000X0.450000X-0.450000X0.450000X0.450000X0*%
%ADD17O,4.340000X1.800000*%
%ADD18C,0.850000*%
G04 APERTURE END LIST*
D10*
X163112500Y-72625000D03*
D11*
X160512500Y-66875000D03*
X167512500Y-67925000D03*
D10*
X158350000Y-72625000D03*
D11*
X152600000Y-75225000D03*
X153650000Y-68225000D03*
D10*
X89293500Y-96438000D03*
D11*
X95043500Y-93838000D03*
X93993500Y-100838000D03*
D10*
X129775000Y-53575000D03*
D11*
X132375000Y-59325000D03*
X125375000Y-58275000D03*
D10*
X84531250Y-91675000D03*
D11*
X81931250Y-85925000D03*
X88931250Y-86975000D03*
D10*
X91675000Y-34525000D03*
D11*
X94275000Y-40275000D03*
X87275000Y-39225000D03*
D10*
X196449750Y-96437500D03*
D11*
X202199750Y-93837500D03*
X201149750Y-100837500D03*
D10*
X191687500Y-53575000D03*
D11*
X189087500Y-47825000D03*
X196087500Y-48875000D03*
D10*
X129775000Y-34525000D03*
D11*
X124025000Y-37125000D03*
X125075000Y-30125000D03*
D10*
X86912500Y-72625000D03*
D11*
X84312500Y-66875000D03*
X91312500Y-67925000D03*
D10*
X236931250Y-53575000D03*
D11*
X234331250Y-47825000D03*
X241331250Y-48875000D03*
D10*
X91675000Y-72625000D03*
D11*
X94275000Y-78375000D03*
X87275000Y-77325000D03*
D10*
X182162500Y-72625000D03*
D11*
X179562500Y-66875000D03*
X186562500Y-67925000D03*
D10*
X205975000Y-34525000D03*
D11*
X208575000Y-40275000D03*
X201575000Y-39225000D03*
D10*
X225025000Y-34525000D03*
D11*
X227625000Y-40275000D03*
X220625000Y-39225000D03*
D10*
X37050250Y-72625000D03*
D11*
X39650250Y-78375000D03*
X32650250Y-77325000D03*
D10*
X144062500Y-72625000D03*
D11*
X141462500Y-66875000D03*
X148462500Y-67925000D03*
D10*
X239312500Y-72625000D03*
D11*
X233562500Y-75225000D03*
X234612500Y-68225000D03*
D12*
X25640000Y-68525000D03*
D13*
X25640000Y-65985000D03*
D10*
X158350250Y-96438000D03*
D11*
X160950250Y-102188000D03*
X153950250Y-101138000D03*
D10*
X244075000Y-72625000D03*
D11*
X246675000Y-78375000D03*
X239675000Y-77325000D03*
D12*
X25640000Y-79285000D03*
D13*
X25640000Y-76745000D03*
D10*
X165494000Y-96438000D03*
D11*
X170194000Y-100838000D03*
X171244000Y-93838000D03*
D10*
X110725000Y-53575000D03*
D11*
X113325000Y-59325000D03*
X106325000Y-58275000D03*
D10*
X72625000Y-72625000D03*
D11*
X75225000Y-78375000D03*
X68225000Y-77325000D03*
D10*
X205975000Y-72625000D03*
D11*
X208575000Y-78375000D03*
X201575000Y-77325000D03*
D10*
X148825000Y-34525000D03*
D11*
X143075000Y-37125000D03*
X144125000Y-30125000D03*
D10*
X129775000Y-72625000D03*
D11*
X132375000Y-78375000D03*
X125375000Y-77325000D03*
D10*
X217881250Y-91675000D03*
D11*
X215281250Y-85925000D03*
X222281250Y-86975000D03*
D10*
X53575000Y-72625000D03*
D11*
X56175000Y-78375000D03*
X49175000Y-77325000D03*
D10*
X86912250Y-96437500D03*
D11*
X92662250Y-93837500D03*
X91612250Y-100837500D03*
D10*
X110725000Y-34525000D03*
D11*
X113325000Y-40275000D03*
X106325000Y-39225000D03*
D10*
X244075000Y-53575000D03*
D11*
X246675000Y-59325000D03*
X239675000Y-58275000D03*
D10*
X82149500Y-96438000D03*
D11*
X84749500Y-102188000D03*
X77749500Y-101138000D03*
D10*
X177400000Y-72625000D03*
D11*
X171650000Y-75225000D03*
X172700000Y-68225000D03*
D12*
X139310000Y-20895000D03*
D13*
X139310000Y-18355000D03*
D10*
X77387500Y-53575000D03*
D11*
X74787500Y-47825000D03*
X81787500Y-48875000D03*
D12*
X144700000Y-20885000D03*
D13*
X144700000Y-18345000D03*
D10*
X115487500Y-53575000D03*
D11*
X112887500Y-47825000D03*
X119887500Y-48875000D03*
D10*
X244075000Y-34525000D03*
D11*
X246675000Y-40275000D03*
X239675000Y-39225000D03*
D10*
X151206000Y-96437500D03*
D11*
X146506000Y-92037500D03*
X145456000Y-99037500D03*
D10*
X186925000Y-53575000D03*
D11*
X189525000Y-59325000D03*
X182525000Y-58275000D03*
D10*
X172637500Y-53575000D03*
D11*
X170037500Y-47825000D03*
X177037500Y-48875000D03*
D10*
X210737500Y-53575000D03*
D11*
X208137500Y-47825000D03*
X215137500Y-48875000D03*
D10*
X120250000Y-72625000D03*
D11*
X114500000Y-75225000D03*
X115550000Y-68225000D03*
D10*
X34525000Y-34525000D03*
D11*
X37125000Y-40275000D03*
X30125000Y-39225000D03*
D10*
X186925000Y-34525000D03*
D11*
X189525000Y-40275000D03*
X182525000Y-39225000D03*
D10*
X241693750Y-72625000D03*
D11*
X239093750Y-66875000D03*
X246093750Y-67925000D03*
D10*
X175019000Y-96437500D03*
D11*
X180769000Y-93837500D03*
X179719000Y-100837500D03*
D10*
X34525000Y-72625000D03*
D11*
X37125000Y-78375000D03*
X30125000Y-77325000D03*
D10*
X96437500Y-53575000D03*
D11*
X93837500Y-47825000D03*
X100837500Y-48875000D03*
D10*
X165493750Y-91675000D03*
D11*
X171243750Y-89075000D03*
X170193750Y-96075000D03*
D10*
X110725000Y-72625000D03*
D11*
X113325000Y-78375000D03*
X106325000Y-77325000D03*
D10*
X198831250Y-91675000D03*
D11*
X196231250Y-85925000D03*
X203231250Y-86975000D03*
D10*
X205975000Y-53575000D03*
D11*
X208575000Y-59325000D03*
X201575000Y-58275000D03*
D10*
X101200000Y-72625000D03*
D11*
X95450000Y-75225000D03*
X96500000Y-68225000D03*
D10*
X194068750Y-91675000D03*
D11*
X198468750Y-86975000D03*
X191468750Y-85925000D03*
D10*
X53575000Y-53575000D03*
D11*
X56175000Y-59325000D03*
X49175000Y-58275000D03*
D10*
X167875000Y-34525000D03*
D11*
X170475000Y-40275000D03*
X163475000Y-39225000D03*
D10*
X215500000Y-72625000D03*
D11*
X209750000Y-75225000D03*
X210800000Y-68225000D03*
D10*
X120250250Y-96438000D03*
D11*
X126000250Y-93838000D03*
X124950250Y-100838000D03*
D10*
X39287500Y-72625000D03*
D11*
X43987500Y-77025000D03*
X45037500Y-70025000D03*
D10*
X82150000Y-72625000D03*
D11*
X76400000Y-75225000D03*
X77450000Y-68225000D03*
D10*
X186925000Y-72625000D03*
D11*
X189525000Y-78375000D03*
X182525000Y-77325000D03*
D10*
X125012500Y-72625000D03*
D11*
X122412500Y-66875000D03*
X129412500Y-67925000D03*
D10*
X67862500Y-72625000D03*
D11*
X65262500Y-66875000D03*
X72262500Y-67925000D03*
D10*
X105962500Y-72625000D03*
D11*
X103362500Y-66875000D03*
X110362500Y-67925000D03*
D10*
X196450000Y-72625000D03*
D11*
X190700000Y-75225000D03*
X191750000Y-68225000D03*
D10*
X220262500Y-72625000D03*
D11*
X217662500Y-66875000D03*
X224662500Y-67925000D03*
D10*
X41668750Y-72625000D03*
D11*
X39068750Y-66875000D03*
X46068750Y-67925000D03*
D10*
X153587500Y-53575000D03*
D11*
X150987500Y-47825000D03*
X157987500Y-48875000D03*
D10*
X167875000Y-72625000D03*
D11*
X170475000Y-78375000D03*
X163475000Y-77325000D03*
D10*
X225025000Y-53575000D03*
D11*
X227625000Y-59325000D03*
X220625000Y-58275000D03*
D10*
X91675000Y-53575000D03*
D11*
X94275000Y-59325000D03*
X87275000Y-58275000D03*
D10*
X72625000Y-53575000D03*
D11*
X75225000Y-59325000D03*
X68225000Y-58275000D03*
D10*
X241693750Y-91675000D03*
D11*
X244293750Y-97425000D03*
X237293750Y-96375000D03*
D10*
X220262500Y-91675000D03*
D11*
X222862500Y-97425000D03*
X215862500Y-96375000D03*
D10*
X167875000Y-53575000D03*
D11*
X170475000Y-59325000D03*
X163475000Y-58275000D03*
D10*
X34525000Y-53575000D03*
D11*
X37125000Y-59325000D03*
X30125000Y-58275000D03*
D12*
X25650000Y-73915000D03*
D13*
X25650000Y-71375000D03*
D10*
X148825000Y-53575000D03*
D11*
X151425000Y-59325000D03*
X144425000Y-58275000D03*
D10*
X160731250Y-91675000D03*
D11*
X158131250Y-85925000D03*
X165131250Y-86975000D03*
D12*
X133940000Y-20905000D03*
D13*
X133940000Y-18365000D03*
D10*
X36906250Y-91675000D03*
D11*
X39506250Y-97425000D03*
X32506250Y-96375000D03*
D10*
X151206250Y-91675000D03*
D11*
X145456250Y-94275000D03*
X146506250Y-87275000D03*
D10*
X117868750Y-91675000D03*
D11*
X115268750Y-85925000D03*
X122268750Y-86975000D03*
D10*
X63100000Y-72625000D03*
D11*
X57350000Y-75225000D03*
X58400000Y-68225000D03*
D10*
X134537500Y-53575000D03*
D11*
X131937500Y-47825000D03*
X138937500Y-48875000D03*
D10*
X79768750Y-91675000D03*
D11*
X74018750Y-94275000D03*
X75068750Y-87275000D03*
D10*
X36906250Y-53575000D03*
D11*
X34306250Y-47825000D03*
X41306250Y-48875000D03*
D10*
X139300000Y-72625000D03*
D11*
X133550000Y-75225000D03*
X134600000Y-68225000D03*
D10*
X117869000Y-96437500D03*
D11*
X112119000Y-99037500D03*
X113169000Y-92037500D03*
D10*
X58337500Y-53575000D03*
D11*
X55737500Y-47825000D03*
X62737500Y-48875000D03*
D10*
X60718750Y-91675000D03*
D11*
X63318750Y-97425000D03*
X56318750Y-96375000D03*
D10*
X148825000Y-72625000D03*
D11*
X151425000Y-78375000D03*
X144425000Y-77325000D03*
D10*
X225025000Y-72625000D03*
D11*
X227625000Y-78375000D03*
X220625000Y-77325000D03*
D10*
X53575000Y-34525000D03*
D11*
X56175000Y-40275000D03*
X49175000Y-39225000D03*
D10*
X189306500Y-96438000D03*
D11*
X183556500Y-99038000D03*
X184606500Y-92038000D03*
D10*
X241693750Y-82150000D03*
D11*
X244293750Y-87900000D03*
X237293750Y-86850000D03*
D10*
X201212500Y-72625000D03*
D11*
X198612500Y-66875000D03*
X205612500Y-67925000D03*
D10*
X175018750Y-91675000D03*
D11*
X172418750Y-85925000D03*
X179418750Y-86975000D03*
D10*
X58337500Y-91675000D03*
D11*
X55737500Y-85925000D03*
X62737500Y-86975000D03*
D10*
X72625000Y-34525000D03*
D11*
X75225000Y-40275000D03*
X68225000Y-39225000D03*
D14*
X176100000Y-37410000D03*
D15*
X178100000Y-37410000D03*
D13*
X134400000Y-26920000D03*
X136940000Y-26920000D03*
D16*
X139480000Y-26920000D03*
X142020000Y-26920000D03*
D13*
X144560000Y-26920000D03*
X147100000Y-26920000D03*
X149640000Y-26920000D03*
X152180000Y-26920000D03*
X154720000Y-26920000D03*
X157260000Y-26920000D03*
X159800000Y-26920000D03*
X162340000Y-26920000D03*
D17*
X133130000Y-42160000D03*
D16*
X136940000Y-42160000D03*
D13*
X139480000Y-42160000D03*
X142020000Y-42160000D03*
X144560000Y-42160000D03*
X147100000Y-42160000D03*
X149640000Y-42160000D03*
X152180000Y-42160000D03*
X154720000Y-42160000D03*
X157260000Y-42160000D03*
X159800000Y-42160000D03*
X162340000Y-42160000D03*
X157260000Y-29460000D03*
X157260000Y-32000000D03*
X157260000Y-34540000D03*
D16*
X131860000Y-26920000D03*
D13*
X131860000Y-42160000D03*
D18*
X178430000Y-29810000D03*
X175430000Y-29810000D03*
M02*
