G04 #@! TF.GenerationSoftware,KiCad,Pcbnew,7.0.11-7.0.11~ubuntu22.04.1*
G04 #@! TF.CreationDate,2024-05-14T18:32:03+02:00*
G04 #@! TF.ProjectId,alpha4,616c7068-6134-42e6-9b69-6361645f7063,rev?*
G04 #@! TF.SameCoordinates,Original*
G04 #@! TF.FileFunction,Profile,NP*
%FSLAX46Y46*%
G04 Gerber Fmt 4.6, Leading zero omitted, Abs format (unit mm)*
G04 Created by KiCad (PCBNEW 7.0.11-7.0.11~ubuntu22.04.1) date 2024-05-14 18:32:03*
%MOMM*%
%LPD*%
G01*
G04 APERTURE LIST*
G04 #@! TA.AperFunction,Profile*
%ADD10C,0.100000*%
G04 #@! TD*
G04 #@! TA.AperFunction,Profile*
%ADD11C,0.050000*%
G04 #@! TD*
G04 APERTURE END LIST*
D10*
X239093800Y-102200000D02*
G75*
G03*
X237093750Y-100200000I-2000000J0D01*
G01*
X34306300Y-102200000D02*
G75*
G03*
X32306250Y-100200000I-2000000J0D01*
G01*
X250600000Y-26000000D02*
X246293750Y-26000000D01*
X163825000Y-25000000D02*
X150325000Y-25000000D01*
X206975000Y-100200000D02*
G75*
G03*
X204975000Y-102200000I0J-2000000D01*
G01*
X22000000Y-79650000D02*
G75*
G03*
X24000000Y-81650000I2000000J0D01*
G01*
X34306250Y-20000000D02*
X34306250Y-24000000D01*
X76006200Y-102962500D02*
G75*
G03*
X78006250Y-104962500I2000000J0D01*
G01*
D11*
X134020000Y-23200000D02*
G75*
G03*
X134020000Y-24500000I0J-650000D01*
G01*
D10*
X242793750Y-20000000D02*
G75*
G03*
X240593750Y-20000000I-1100000J0D01*
G01*
X240593750Y-20000000D02*
G75*
G03*
X242793750Y-20000000I1100000J0D01*
G01*
D11*
X145500000Y-24500000D02*
G75*
G03*
X145500000Y-23200000I0J650000D01*
G01*
D10*
X22000000Y-65600000D02*
X22000000Y-79650000D01*
D11*
X134020000Y-23200000D02*
X145500000Y-23200000D01*
D10*
X237093750Y-26000000D02*
X164825000Y-26000000D01*
X146325000Y-15993750D02*
X132275000Y-15993750D01*
X244293750Y-20000000D02*
G75*
G03*
X239093750Y-20000000I-2600000J0D01*
G01*
X128275000Y-26000000D02*
G75*
G03*
X130275000Y-24000000I0J2000000D01*
G01*
X130275000Y-17993750D02*
X130275000Y-24000000D01*
X34306250Y-106200000D02*
G75*
G03*
X39506250Y-106200000I2600000J0D01*
G01*
X39506200Y-24000000D02*
G75*
G03*
X41506250Y-26000000I2000000J0D01*
G01*
X76006300Y-102200000D02*
G75*
G03*
X74006250Y-100200000I-2000000J0D01*
G01*
X252600000Y-98200000D02*
X252600000Y-28000000D01*
X34306250Y-102200000D02*
X34306250Y-106200000D01*
X26000000Y-83650000D02*
X26000000Y-98200000D01*
X38006250Y-20000000D02*
G75*
G03*
X35806250Y-20000000I-1100000J0D01*
G01*
X35806250Y-20000000D02*
G75*
G03*
X38006250Y-20000000I1100000J0D01*
G01*
X38006250Y-106200000D02*
G75*
G03*
X35806250Y-106200000I-1100000J0D01*
G01*
X35806250Y-106200000D02*
G75*
G03*
X38006250Y-106200000I1100000J0D01*
G01*
X148324950Y-17993750D02*
G75*
G03*
X146325000Y-15993750I-1999950J50D01*
G01*
X148325000Y-23000000D02*
X148325000Y-17993750D01*
X202975000Y-104962500D02*
G75*
G03*
X204975000Y-102962500I0J2000000D01*
G01*
X28000000Y-26000000D02*
G75*
G03*
X26000000Y-28000000I0J-2000000D01*
G01*
X244293750Y-24000000D02*
X244293750Y-20000000D01*
X24000000Y-63600000D02*
G75*
G03*
X22000000Y-65600000I0J-2000000D01*
G01*
X76006250Y-102200000D02*
X76006250Y-102962500D01*
X39506250Y-106200000D02*
X39506250Y-102200000D01*
X26000000Y-98200000D02*
G75*
G03*
X28000000Y-100200000I2000000J0D01*
G01*
X41506250Y-100200050D02*
G75*
G03*
X39506250Y-102200000I-50J-1999950D01*
G01*
X239093750Y-102200000D02*
X239093750Y-106200000D01*
X32306250Y-25999950D02*
G75*
G03*
X34306250Y-24000000I50J1999950D01*
G01*
D11*
X145500000Y-24500000D02*
X134020000Y-24500000D01*
D10*
X148325000Y-23000000D02*
G75*
G03*
X150325000Y-25000000I2000000J0D01*
G01*
X164325000Y-25500000D02*
G75*
G03*
X164825000Y-26000000I500000J0D01*
G01*
X39506250Y-24000000D02*
X39506250Y-20000000D01*
X252600000Y-28000000D02*
G75*
G03*
X250600000Y-26000000I-2000000J0D01*
G01*
X128275000Y-26000000D02*
X41506250Y-26000000D01*
X244293700Y-24000000D02*
G75*
G03*
X246293750Y-26000000I2000000J0D01*
G01*
X39506250Y-20000000D02*
G75*
G03*
X34306250Y-20000000I-2600000J0D01*
G01*
X239093750Y-20000000D02*
X239093750Y-24000000D01*
X26000000Y-83650000D02*
G75*
G03*
X24000000Y-81650000I-2000000J0D01*
G01*
X206975000Y-100200000D02*
X237093750Y-100200000D01*
X250600000Y-100200000D02*
G75*
G03*
X252600000Y-98200000I0J2000000D01*
G01*
X32306250Y-26000000D02*
X28000000Y-26000000D01*
X246293750Y-100200000D02*
X250600000Y-100200000D01*
X26000000Y-28000000D02*
X26000000Y-61600000D01*
X244293750Y-106200000D02*
X244293750Y-102200000D01*
X239093750Y-106200000D02*
G75*
G03*
X244293750Y-106200000I2600000J0D01*
G01*
X41506250Y-100200000D02*
X74006250Y-100200000D01*
X164325000Y-25500000D02*
G75*
G03*
X163825000Y-25000000I-500000J0D01*
G01*
X237093750Y-25999950D02*
G75*
G03*
X239093750Y-24000000I50J1999950D01*
G01*
X28000000Y-100200000D02*
X32306250Y-100200000D01*
X24000000Y-63600000D02*
G75*
G03*
X26000000Y-61600000I0J2000000D01*
G01*
X132275000Y-15993700D02*
G75*
G03*
X130275000Y-17993750I0J-2000000D01*
G01*
X204975000Y-102962500D02*
X204975000Y-102200000D01*
X78006250Y-104962500D02*
X202975000Y-104962500D01*
X242793750Y-106200000D02*
G75*
G03*
X240593750Y-106200000I-1100000J0D01*
G01*
X240593750Y-106200000D02*
G75*
G03*
X242793750Y-106200000I1100000J0D01*
G01*
X246293750Y-100200050D02*
G75*
G03*
X244293750Y-102200000I-50J-1999950D01*
G01*
M02*
