G04 #@! TF.GenerationSoftware,KiCad,Pcbnew,7.0.11-7.0.11~ubuntu22.04.1*
G04 #@! TF.CreationDate,2024-05-14T18:32:02+02:00*
G04 #@! TF.ProjectId,alpha4,616c7068-6134-42e6-9b69-6361645f7063,rev?*
G04 #@! TF.SameCoordinates,Original*
G04 #@! TF.FileFunction,Copper,L2,Bot*
G04 #@! TF.FilePolarity,Positive*
%FSLAX46Y46*%
G04 Gerber Fmt 4.6, Leading zero omitted, Abs format (unit mm)*
G04 Created by KiCad (PCBNEW 7.0.11-7.0.11~ubuntu22.04.1) date 2024-05-14 18:32:02*
%MOMM*%
%LPD*%
G01*
G04 APERTURE LIST*
G04 Aperture macros list*
%AMRoundRect*
0 Rectangle with rounded corners*
0 $1 Rounding radius*
0 $2 $3 $4 $5 $6 $7 $8 $9 X,Y pos of 4 corners*
0 Add a 4 corners polygon primitive as box body*
4,1,4,$2,$3,$4,$5,$6,$7,$8,$9,$2,$3,0*
0 Add four circle primitives for the rounded corners*
1,1,$1+$1,$2,$3*
1,1,$1+$1,$4,$5*
1,1,$1+$1,$6,$7*
1,1,$1+$1,$8,$9*
0 Add four rect primitives between the rounded corners*
20,1,$1+$1,$2,$3,$4,$5,0*
20,1,$1+$1,$4,$5,$6,$7,0*
20,1,$1+$1,$6,$7,$8,$9,0*
20,1,$1+$1,$8,$9,$2,$3,0*%
G04 Aperture macros list end*
G04 #@! TA.AperFunction,ComponentPad*
%ADD10C,2.500000*%
G04 #@! TD*
G04 #@! TA.AperFunction,ComponentPad*
%ADD11C,2.000000*%
G04 #@! TD*
G04 #@! TA.AperFunction,ComponentPad*
%ADD12RoundRect,0.500000X-0.500000X-0.500000X0.500000X-0.500000X0.500000X0.500000X-0.500000X0.500000X0*%
G04 #@! TD*
G04 #@! TA.AperFunction,ComponentPad*
%ADD13R,1.800000X1.800000*%
G04 #@! TD*
G04 #@! TA.AperFunction,ComponentPad*
%ADD14C,1.800000*%
G04 #@! TD*
G04 #@! TA.AperFunction,SMDPad,CuDef*
%ADD15RoundRect,0.225000X0.375000X-0.225000X0.375000X0.225000X-0.375000X0.225000X-0.375000X-0.225000X0*%
G04 #@! TD*
G04 #@! TA.AperFunction,SMDPad,CuDef*
%ADD16RoundRect,0.225000X-0.375000X0.225000X-0.375000X-0.225000X0.375000X-0.225000X0.375000X0.225000X0*%
G04 #@! TD*
G04 #@! TA.AperFunction,ComponentPad*
%ADD17O,1.200000X1.750000*%
G04 #@! TD*
G04 #@! TA.AperFunction,ComponentPad*
%ADD18RoundRect,0.250000X0.350000X0.625000X-0.350000X0.625000X-0.350000X-0.625000X0.350000X-0.625000X0*%
G04 #@! TD*
G04 #@! TA.AperFunction,ComponentPad*
%ADD19RoundRect,0.450000X-0.450000X0.450000X-0.450000X-0.450000X0.450000X-0.450000X0.450000X0.450000X0*%
G04 #@! TD*
G04 #@! TA.AperFunction,ComponentPad*
%ADD20O,4.340000X1.800000*%
G04 #@! TD*
G04 #@! TA.AperFunction,SMDPad,CuDef*
%ADD21RoundRect,0.090000X-0.210000X-0.535000X0.210000X-0.535000X0.210000X0.535000X-0.210000X0.535000X0*%
G04 #@! TD*
G04 #@! TA.AperFunction,SMDPad,CuDef*
%ADD22RoundRect,0.105000X-0.445000X0.245000X-0.445000X-0.245000X0.445000X-0.245000X0.445000X0.245000X0*%
G04 #@! TD*
G04 #@! TA.AperFunction,ViaPad*
%ADD23C,0.600000*%
G04 #@! TD*
G04 #@! TA.AperFunction,Conductor*
%ADD24C,0.200000*%
G04 #@! TD*
G04 APERTURE END LIST*
D10*
X160512500Y-66875000D03*
X167512500Y-67925000D03*
X152600000Y-75225000D03*
X153650000Y-68225000D03*
X95043500Y-93838000D03*
X93993500Y-100838000D03*
D11*
X212762500Y-89175000D03*
X212762500Y-94175000D03*
D12*
X212762500Y-91675000D03*
D11*
X227262500Y-94175000D03*
X227262500Y-89175000D03*
D10*
X132375000Y-59325000D03*
X125375000Y-58275000D03*
X81931250Y-85925000D03*
X88931250Y-86975000D03*
X94275000Y-40275000D03*
X87275000Y-39225000D03*
X202199750Y-93837500D03*
X201149750Y-100837500D03*
X189087500Y-47825000D03*
X196087500Y-48875000D03*
X124025000Y-37125000D03*
X125075000Y-30125000D03*
X84312500Y-66875000D03*
X91312500Y-67925000D03*
X234331250Y-47825000D03*
X241331250Y-48875000D03*
X94275000Y-78375000D03*
X87275000Y-77325000D03*
X179562500Y-66875000D03*
X186562500Y-67925000D03*
X208575000Y-40275000D03*
X201575000Y-39225000D03*
X227625000Y-40275000D03*
X220625000Y-39225000D03*
X39650250Y-78375000D03*
X32650250Y-77325000D03*
X141462500Y-66875000D03*
X148462500Y-67925000D03*
X233562500Y-75225000D03*
X234612500Y-68225000D03*
D13*
X25640000Y-68525000D03*
D14*
X25640000Y-65985000D03*
D10*
X160950250Y-102188000D03*
X153950250Y-101138000D03*
X246675000Y-78375000D03*
X239675000Y-77325000D03*
D13*
X25640000Y-79285000D03*
D14*
X25640000Y-76745000D03*
D10*
X170194000Y-100838000D03*
X171244000Y-93838000D03*
X113325000Y-59325000D03*
X106325000Y-58275000D03*
X75225000Y-78375000D03*
X68225000Y-77325000D03*
X208575000Y-78375000D03*
X201575000Y-77325000D03*
X143075000Y-37125000D03*
X144125000Y-30125000D03*
X132375000Y-78375000D03*
X125375000Y-77325000D03*
X215281250Y-85925000D03*
X222281250Y-86975000D03*
X56175000Y-78375000D03*
X49175000Y-77325000D03*
X92662250Y-93837500D03*
X91612250Y-100837500D03*
X113325000Y-40275000D03*
X106325000Y-39225000D03*
X246675000Y-59325000D03*
X239675000Y-58275000D03*
X84749500Y-102188000D03*
X77749500Y-101138000D03*
X171650000Y-75225000D03*
X172700000Y-68225000D03*
D13*
X139310000Y-20895000D03*
D14*
X139310000Y-18355000D03*
D10*
X74787500Y-47825000D03*
X81787500Y-48875000D03*
D13*
X144700000Y-20885000D03*
D14*
X144700000Y-18345000D03*
D10*
X112887500Y-47825000D03*
X119887500Y-48875000D03*
X246675000Y-40275000D03*
X239675000Y-39225000D03*
X146506000Y-92037500D03*
X145456000Y-99037500D03*
X189525000Y-59325000D03*
X182525000Y-58275000D03*
X170037500Y-47825000D03*
X177037500Y-48875000D03*
X208137500Y-47825000D03*
X215137500Y-48875000D03*
X114500000Y-75225000D03*
X115550000Y-68225000D03*
X37125000Y-40275000D03*
X30125000Y-39225000D03*
X189525000Y-40275000D03*
X182525000Y-39225000D03*
X239093750Y-66875000D03*
X246093750Y-67925000D03*
X180769000Y-93837500D03*
X179719000Y-100837500D03*
X37125000Y-78375000D03*
X30125000Y-77325000D03*
X93837500Y-47825000D03*
X100837500Y-48875000D03*
X171243750Y-89075000D03*
X170193750Y-96075000D03*
X113325000Y-78375000D03*
X106325000Y-77325000D03*
X196231250Y-85925000D03*
X203231250Y-86975000D03*
X208575000Y-59325000D03*
X201575000Y-58275000D03*
X95450000Y-75225000D03*
X96500000Y-68225000D03*
X198468750Y-86975000D03*
X191468750Y-85925000D03*
X56175000Y-59325000D03*
X49175000Y-58275000D03*
X170475000Y-40275000D03*
X163475000Y-39225000D03*
X209750000Y-75225000D03*
X210800000Y-68225000D03*
X126000250Y-93838000D03*
X124950250Y-100838000D03*
X43987500Y-77025000D03*
X45037500Y-70025000D03*
X76400000Y-75225000D03*
X77450000Y-68225000D03*
X189525000Y-78375000D03*
X182525000Y-77325000D03*
X122412500Y-66875000D03*
X129412500Y-67925000D03*
X65262500Y-66875000D03*
X72262500Y-67925000D03*
X103362500Y-66875000D03*
X110362500Y-67925000D03*
X190700000Y-75225000D03*
X191750000Y-68225000D03*
X217662500Y-66875000D03*
X224662500Y-67925000D03*
X39068750Y-66875000D03*
X46068750Y-67925000D03*
X150987500Y-47825000D03*
X157987500Y-48875000D03*
X170475000Y-78375000D03*
X163475000Y-77325000D03*
X227625000Y-59325000D03*
X220625000Y-58275000D03*
X94275000Y-59325000D03*
X87275000Y-58275000D03*
X75225000Y-59325000D03*
X68225000Y-58275000D03*
X244293750Y-97425000D03*
X237293750Y-96375000D03*
X222862500Y-97425000D03*
X215862500Y-96375000D03*
X170475000Y-59325000D03*
X163475000Y-58275000D03*
X37125000Y-59325000D03*
X30125000Y-58275000D03*
D13*
X25650000Y-73915000D03*
D14*
X25650000Y-71375000D03*
D10*
X151425000Y-59325000D03*
X144425000Y-58275000D03*
X158131250Y-85925000D03*
X165131250Y-86975000D03*
D13*
X133940000Y-20905000D03*
D14*
X133940000Y-18365000D03*
D10*
X39506250Y-97425000D03*
X32506250Y-96375000D03*
X145456250Y-94275000D03*
X146506250Y-87275000D03*
X115268750Y-85925000D03*
X122268750Y-86975000D03*
X57350000Y-75225000D03*
X58400000Y-68225000D03*
X131937500Y-47825000D03*
X138937500Y-48875000D03*
X74018750Y-94275000D03*
X75068750Y-87275000D03*
X34306250Y-47825000D03*
X41306250Y-48875000D03*
X133550000Y-75225000D03*
X134600000Y-68225000D03*
X112119000Y-99037500D03*
X113169000Y-92037500D03*
X55737500Y-47825000D03*
X62737500Y-48875000D03*
X63318750Y-97425000D03*
X56318750Y-96375000D03*
X151425000Y-78375000D03*
X144425000Y-77325000D03*
X227625000Y-78375000D03*
X220625000Y-77325000D03*
X56175000Y-40275000D03*
X49175000Y-39225000D03*
X183556500Y-99038000D03*
X184606500Y-92038000D03*
X244293750Y-87900000D03*
X237293750Y-86850000D03*
X198612500Y-66875000D03*
X205612500Y-67925000D03*
X172418750Y-85925000D03*
X179418750Y-86975000D03*
X55737500Y-85925000D03*
X62737500Y-86975000D03*
X75225000Y-40275000D03*
X68225000Y-39225000D03*
D15*
X63655000Y-55255000D03*
X63655000Y-51955000D03*
X139855000Y-55255000D03*
X139855000Y-51955000D03*
X249155000Y-36205000D03*
X249155000Y-32905000D03*
D16*
X163930000Y-65005000D03*
X163930000Y-68305000D03*
D15*
X101755000Y-55255000D03*
X101755000Y-51955000D03*
X44605000Y-55255000D03*
X44605000Y-51955000D03*
X208400000Y-94400000D03*
X208400000Y-91100000D03*
X184570000Y-88790000D03*
X184570000Y-85490000D03*
X58655000Y-36205000D03*
X58655000Y-32905000D03*
X120805000Y-55255000D03*
X120805000Y-51955000D03*
D17*
X176100000Y-37410000D03*
D18*
X178100000Y-37410000D03*
D15*
X230105000Y-55255000D03*
X230105000Y-51955000D03*
D16*
X221080000Y-65005000D03*
X221080000Y-68305000D03*
D14*
X134400000Y-26920000D03*
X136940000Y-26920000D03*
D19*
X139480000Y-26920000D03*
X142020000Y-26920000D03*
D14*
X144560000Y-26920000D03*
X147100000Y-26920000D03*
X149640000Y-26920000D03*
X152180000Y-26920000D03*
X154720000Y-26920000D03*
X157260000Y-26920000D03*
X159800000Y-26920000D03*
X162340000Y-26920000D03*
D20*
X133130000Y-42160000D03*
D19*
X136940000Y-42160000D03*
D14*
X139480000Y-42160000D03*
X142020000Y-42160000D03*
X144560000Y-42160000D03*
X147100000Y-42160000D03*
X149640000Y-42160000D03*
X152180000Y-42160000D03*
X154720000Y-42160000D03*
X157260000Y-42160000D03*
X159800000Y-42160000D03*
X162340000Y-42160000D03*
X157260000Y-29460000D03*
X157260000Y-32000000D03*
X157260000Y-34540000D03*
D19*
X131860000Y-26920000D03*
D14*
X131860000Y-42160000D03*
D15*
X230342500Y-94355000D03*
X230342500Y-91055000D03*
X230105000Y-36205000D03*
X230105000Y-32905000D03*
D16*
X87730000Y-65005000D03*
X87730000Y-68305000D03*
D15*
X70310000Y-94270000D03*
X70310000Y-90970000D03*
X177955000Y-55255000D03*
X177955000Y-51955000D03*
X158905000Y-55255000D03*
X158905000Y-51955000D03*
X115805000Y-36205000D03*
X115805000Y-32905000D03*
X96755000Y-36205000D03*
X96755000Y-32905000D03*
X67705000Y-36205000D03*
X67705000Y-32905000D03*
D16*
X55170000Y-65002500D03*
X55170000Y-68302500D03*
D15*
X82705000Y-55255000D03*
X82705000Y-51955000D03*
X134855000Y-36205000D03*
X134855000Y-32905000D03*
X153905000Y-36205000D03*
X153905000Y-32905000D03*
D16*
X182980000Y-65005000D03*
X182980000Y-68305000D03*
X125830000Y-65005000D03*
X125830000Y-68305000D03*
D21*
X174680000Y-31810000D03*
X177680000Y-31810000D03*
X179180000Y-31810000D03*
D22*
X180630000Y-30960000D03*
X180630000Y-28660000D03*
X173230000Y-30960000D03*
X173230000Y-28660000D03*
D15*
X192005000Y-36205000D03*
X192005000Y-32905000D03*
D16*
X51290000Y-64960000D03*
X51290000Y-68260000D03*
D15*
X249155000Y-55255000D03*
X249155000Y-51955000D03*
D16*
X202030000Y-65005000D03*
X202030000Y-68305000D03*
D15*
X39605000Y-36205000D03*
X39605000Y-32905000D03*
X132050000Y-94390000D03*
X132050000Y-91090000D03*
D16*
X106780000Y-65005000D03*
X106780000Y-68305000D03*
D15*
X216055000Y-55255000D03*
X216055000Y-51955000D03*
X246773750Y-94355000D03*
X246773750Y-91055000D03*
X197005000Y-55255000D03*
X197005000Y-51955000D03*
D16*
X144880000Y-65005000D03*
X144880000Y-68305000D03*
D15*
X211055000Y-36205000D03*
X211055000Y-32905000D03*
X162360000Y-36247500D03*
X162360000Y-32947500D03*
X140610000Y-94390000D03*
X140610000Y-91090000D03*
D16*
X230200000Y-65150000D03*
X230200000Y-68450000D03*
D15*
X65798750Y-94355000D03*
X65798750Y-91055000D03*
X41986250Y-94355000D03*
X41986250Y-91055000D03*
D16*
X42800000Y-64992500D03*
X42800000Y-68292500D03*
D23*
X151150000Y-32390000D03*
X147100000Y-30450000D03*
X147090000Y-45675000D03*
X147100000Y-46875000D03*
X158790000Y-64855000D03*
X159400000Y-63230000D03*
X77110000Y-98380000D03*
X180330000Y-45675000D03*
X79652610Y-100757390D03*
X172270602Y-71550602D03*
X74310000Y-98690000D03*
X78277610Y-99382390D03*
X74168311Y-97628145D03*
X79990000Y-99288001D03*
X75950000Y-97650000D03*
X185270000Y-103310000D03*
X81251140Y-100658860D03*
X186890000Y-103138000D03*
X146780000Y-40540000D03*
X131490000Y-65390000D03*
X184498701Y-62787328D03*
X185609265Y-65390735D03*
X180270000Y-61510000D03*
X160559925Y-29081110D03*
X159760000Y-29070000D03*
X179469997Y-61510000D03*
X183933015Y-63353015D03*
X184790000Y-65420000D03*
X144700000Y-38300000D03*
X205770000Y-63080000D03*
X188925000Y-44160000D03*
X208410000Y-65720000D03*
X142020000Y-31075000D03*
X204875735Y-62175735D03*
X147042210Y-38051649D03*
X165100000Y-38080000D03*
X190125000Y-44140000D03*
X142020000Y-32275000D03*
X164430000Y-37480000D03*
X29830000Y-44570000D03*
X28630000Y-44570000D03*
X141950000Y-22100000D03*
X113925000Y-44960000D03*
X150480000Y-30800000D03*
X28030000Y-43770000D03*
X114498383Y-44360000D03*
X29830000Y-43769997D03*
X149040000Y-30800000D03*
X29830000Y-42969994D03*
X113925000Y-43760000D03*
X149040000Y-29440000D03*
X27430000Y-42970000D03*
X150500000Y-29450000D03*
D24*
X38375000Y-31675000D02*
X39605000Y-32905000D01*
X33344491Y-31675000D02*
X38375000Y-31675000D01*
X30125000Y-34894491D02*
X33344491Y-31675000D01*
X30125000Y-39225000D02*
X30125000Y-34894491D01*
X49175000Y-34894491D02*
X52394491Y-31675000D01*
X52394491Y-31675000D02*
X57425000Y-31675000D01*
X49175000Y-39225000D02*
X49175000Y-34894491D01*
X57425000Y-31675000D02*
X58655000Y-32905000D01*
X69474999Y-37975001D02*
X69474999Y-34674999D01*
X69474999Y-34674999D02*
X67705000Y-32905000D01*
X68225000Y-39225000D02*
X69474999Y-37975001D01*
X90689491Y-31480000D02*
X95330000Y-31480000D01*
X87275000Y-39225000D02*
X87275000Y-34894491D01*
X95330000Y-31480000D02*
X96755000Y-32905000D01*
X87275000Y-34894491D02*
X90689491Y-31480000D01*
X109629491Y-31590000D02*
X114490000Y-31590000D01*
X106325000Y-39225000D02*
X106325000Y-34894491D01*
X114490000Y-31590000D02*
X115805000Y-32905000D01*
X106325000Y-34894491D02*
X109629491Y-31590000D01*
X125075000Y-30125000D02*
X132075000Y-30125000D01*
X132075000Y-30125000D02*
X134855000Y-32905000D01*
X144125000Y-30125000D02*
X144400000Y-29850000D01*
X151050000Y-30050000D02*
X153905000Y-32905000D01*
X144400000Y-29850000D02*
X148601471Y-29850000D01*
X148801471Y-30050000D02*
X151050000Y-30050000D01*
X148601471Y-29850000D02*
X148801471Y-30050000D01*
X163475000Y-39225000D02*
X163475000Y-34062500D01*
X163475000Y-34062500D02*
X162360000Y-32947500D01*
X182525000Y-34894491D02*
X185889491Y-31530000D01*
X190630000Y-31530000D02*
X192005000Y-32905000D01*
X182525000Y-39225000D02*
X182525000Y-34894491D01*
X185889491Y-31530000D02*
X190630000Y-31530000D01*
X209825000Y-31675000D02*
X211055000Y-32905000D01*
X204794491Y-31675000D02*
X209825000Y-31675000D01*
X201575000Y-34894491D02*
X204794491Y-31675000D01*
X201575000Y-39225000D02*
X201575000Y-34894491D01*
X220625000Y-34894491D02*
X223844491Y-31675000D01*
X220625000Y-39225000D02*
X220625000Y-34894491D01*
X228875000Y-31675000D02*
X230105000Y-32905000D01*
X223844491Y-31675000D02*
X228875000Y-31675000D01*
X247925000Y-31675000D02*
X249155000Y-32905000D01*
X242894491Y-31675000D02*
X247925000Y-31675000D01*
X239675000Y-34894491D02*
X242894491Y-31675000D01*
X239675000Y-39225000D02*
X239675000Y-34894491D01*
X35725741Y-88825000D02*
X39756250Y-88825000D01*
X32506250Y-96375000D02*
X32506250Y-92044491D01*
X32506250Y-92044491D02*
X35725741Y-88825000D01*
X39756250Y-88825000D02*
X41986250Y-91055000D01*
X113169000Y-92037500D02*
X118231500Y-86975000D01*
X122268750Y-86975000D02*
X127935000Y-86975000D01*
X124950250Y-98189750D02*
X132050000Y-91090000D01*
X127935000Y-86975000D02*
X132050000Y-91090000D01*
X118231500Y-86975000D02*
X122268750Y-86975000D01*
X124950250Y-100838000D02*
X124950250Y-98189750D01*
X44386250Y-51955000D02*
X44605000Y-51955000D01*
X30125000Y-58275000D02*
X30125000Y-53944491D01*
X30125000Y-53944491D02*
X33944492Y-50124999D01*
X41306250Y-48875000D02*
X44386250Y-51955000D01*
X40056251Y-50124999D02*
X41306250Y-48875000D01*
X33944492Y-50124999D02*
X40056251Y-50124999D01*
X49175000Y-53944491D02*
X53519491Y-49600000D01*
X53519491Y-49600000D02*
X62012500Y-49600000D01*
X62012500Y-49600000D02*
X62737500Y-48875000D01*
X62737500Y-48875000D02*
X62737500Y-51037500D01*
X62737500Y-51037500D02*
X63655000Y-51955000D01*
X49175000Y-58275000D02*
X49175000Y-53944491D01*
X81787500Y-48875000D02*
X81787500Y-51037500D01*
X80502500Y-50160000D02*
X81787500Y-48875000D01*
X72009491Y-50160000D02*
X80502500Y-50160000D01*
X68225000Y-53944491D02*
X72009491Y-50160000D01*
X68225000Y-58275000D02*
X68225000Y-53944491D01*
X81787500Y-51037500D02*
X82705000Y-51955000D01*
X100837500Y-48875000D02*
X100837500Y-51037500D01*
X99587501Y-50124999D02*
X100837500Y-48875000D01*
X100837500Y-51037500D02*
X101755000Y-51955000D01*
X91094492Y-50124999D02*
X99587501Y-50124999D01*
X87275000Y-58275000D02*
X87275000Y-53944491D01*
X87275000Y-53944491D02*
X91094492Y-50124999D01*
X110529491Y-49740000D02*
X119022500Y-49740000D01*
X106325000Y-58275000D02*
X106325000Y-53944491D01*
X106325000Y-53944491D02*
X110529491Y-49740000D01*
X119887500Y-51037500D02*
X120805000Y-51955000D01*
X119022500Y-49740000D02*
X119887500Y-48875000D01*
X119887500Y-48875000D02*
X119887500Y-51037500D01*
X138937500Y-48875000D02*
X138937500Y-51037500D01*
X129029491Y-50290000D02*
X137522500Y-50290000D01*
X125375000Y-53944491D02*
X129029491Y-50290000D01*
X137522500Y-50290000D02*
X138937500Y-48875000D01*
X138937500Y-51037500D02*
X139855000Y-51955000D01*
X125375000Y-58275000D02*
X125375000Y-53944491D01*
X157987500Y-48875000D02*
X157987500Y-51037500D01*
X144425000Y-53944491D02*
X148309491Y-50060000D01*
X144425000Y-58275000D02*
X144425000Y-53944491D01*
X157987500Y-51037500D02*
X158905000Y-51955000D01*
X156802500Y-50060000D02*
X157987500Y-48875000D01*
X148309491Y-50060000D02*
X156802500Y-50060000D01*
X167679491Y-49740000D02*
X176172500Y-49740000D01*
X163475000Y-58275000D02*
X163475000Y-53944491D01*
X177037500Y-48875000D02*
X177037500Y-51037500D01*
X176172500Y-49740000D02*
X177037500Y-48875000D01*
X177037500Y-51037500D02*
X177955000Y-51955000D01*
X163475000Y-53944491D02*
X167679491Y-49740000D01*
X187049491Y-49420000D02*
X195542500Y-49420000D01*
X196087500Y-48875000D02*
X196087500Y-51037500D01*
X195542500Y-49420000D02*
X196087500Y-48875000D01*
X182525000Y-58275000D02*
X182525000Y-53944491D01*
X182525000Y-53944491D02*
X187049491Y-49420000D01*
X196087500Y-51037500D02*
X197005000Y-51955000D01*
X215137500Y-51037500D02*
X216055000Y-51955000D01*
X215137500Y-48875000D02*
X215137500Y-51037500D01*
X214132500Y-49880000D02*
X215137500Y-48875000D01*
X201575000Y-58275000D02*
X201575000Y-53944491D01*
X205639491Y-49880000D02*
X214132500Y-49880000D01*
X201575000Y-53944491D02*
X205639491Y-49880000D01*
X220625000Y-53944491D02*
X223844491Y-50725000D01*
X220625000Y-58275000D02*
X220625000Y-53944491D01*
X228875000Y-50725000D02*
X230105000Y-51955000D01*
X223844491Y-50725000D02*
X228875000Y-50725000D01*
X240924999Y-57025001D02*
X240924999Y-49281251D01*
X240924999Y-49281251D02*
X241331250Y-48875000D01*
X239675000Y-58275000D02*
X240924999Y-57025001D01*
X246075000Y-48875000D02*
X249155000Y-51955000D01*
X241331250Y-48875000D02*
X246075000Y-48875000D01*
X30125000Y-77325000D02*
X32650250Y-77325000D01*
X43305000Y-68292500D02*
X42800000Y-68292500D01*
X46068750Y-68993750D02*
X45037500Y-70025000D01*
X30125000Y-72994491D02*
X34409491Y-68710000D01*
X46068750Y-67925000D02*
X46068750Y-68993750D01*
X34409491Y-68710000D02*
X42382500Y-68710000D01*
X42382500Y-68710000D02*
X42800000Y-68292500D01*
X30125000Y-77325000D02*
X30125000Y-72994491D01*
X45037500Y-70025000D02*
X43305000Y-68292500D01*
X55247500Y-68225000D02*
X55170000Y-68302500D01*
X59950000Y-69775000D02*
X58400000Y-68225000D01*
X58400000Y-68225000D02*
X55247500Y-68225000D01*
X70412500Y-69775000D02*
X59950000Y-69775000D01*
X58400000Y-71955509D02*
X58400000Y-68225000D01*
X63769491Y-77325000D02*
X58400000Y-71955509D01*
X68225000Y-77325000D02*
X63769491Y-77325000D01*
X72262500Y-67925000D02*
X70412500Y-69775000D01*
X94525000Y-73957968D02*
X94525000Y-71137500D01*
X77450000Y-68225000D02*
X78699999Y-69474999D01*
X88110000Y-67925000D02*
X87730000Y-68305000D01*
X87275000Y-77325000D02*
X91157968Y-77325000D01*
X91157968Y-77325000D02*
X94525000Y-73957968D01*
X91312500Y-67925000D02*
X88110000Y-67925000D01*
X78699999Y-69474999D02*
X86560001Y-69474999D01*
X94525000Y-71137500D02*
X91312500Y-67925000D01*
X86560001Y-69474999D02*
X87730000Y-68305000D01*
X96500000Y-68225000D02*
X97749999Y-69474999D01*
X97749999Y-69474999D02*
X105610001Y-69474999D01*
X110362500Y-67925000D02*
X107160000Y-67925000D01*
X110207968Y-77325000D02*
X113575000Y-73957968D01*
X106325000Y-77325000D02*
X110207968Y-77325000D01*
X107160000Y-67925000D02*
X106780000Y-68305000D01*
X113575000Y-71137500D02*
X110362500Y-67925000D01*
X113575000Y-73957968D02*
X113575000Y-71137500D01*
X105610001Y-69474999D02*
X106780000Y-68305000D01*
X132740000Y-71252500D02*
X129412500Y-67925000D01*
X129412500Y-67925000D02*
X126210000Y-67925000D01*
X124660001Y-69474999D02*
X125830000Y-68305000D01*
X116799999Y-69474999D02*
X124660001Y-69474999D01*
X132740000Y-73690509D02*
X132740000Y-71252500D01*
X115550000Y-68225000D02*
X116799999Y-69474999D01*
X126210000Y-67925000D02*
X125830000Y-68305000D01*
X125375000Y-77325000D02*
X129105509Y-77325000D01*
X129105509Y-77325000D02*
X132740000Y-73690509D01*
X151860000Y-71322500D02*
X148462500Y-67925000D01*
X151860000Y-73620509D02*
X151860000Y-71322500D01*
X148462500Y-67925000D02*
X145260000Y-67925000D01*
X143710001Y-69474999D02*
X144880000Y-68305000D01*
X148155509Y-77325000D02*
X151860000Y-73620509D01*
X144425000Y-77325000D02*
X148155509Y-77325000D01*
X134600000Y-68225000D02*
X135849999Y-69474999D01*
X135849999Y-69474999D02*
X143710001Y-69474999D01*
X145260000Y-67925000D02*
X144880000Y-68305000D01*
X167357968Y-77325000D02*
X170725000Y-73957968D01*
X153650000Y-68225000D02*
X154899999Y-69474999D01*
X167512500Y-67925000D02*
X164310000Y-67925000D01*
X170725000Y-73957968D02*
X170725000Y-71137500D01*
X154899999Y-69474999D02*
X162760001Y-69474999D01*
X164310000Y-67925000D02*
X163930000Y-68305000D01*
X170725000Y-71137500D02*
X167512500Y-67925000D01*
X162760001Y-69474999D02*
X163930000Y-68305000D01*
X163475000Y-77325000D02*
X167357968Y-77325000D01*
X205612500Y-67925000D02*
X202410000Y-67925000D01*
X191750000Y-68225000D02*
X192999999Y-69474999D01*
X205457968Y-77325000D02*
X209290000Y-73492968D01*
X201575000Y-77325000D02*
X205457968Y-77325000D01*
X200860001Y-69474999D02*
X202030000Y-68305000D01*
X202410000Y-67925000D02*
X202030000Y-68305000D01*
X209290000Y-73492968D02*
X209290000Y-71602500D01*
X192999999Y-69474999D02*
X200860001Y-69474999D01*
X209290000Y-71602500D02*
X205612500Y-67925000D01*
X224662500Y-67925000D02*
X221460000Y-67925000D01*
X224355509Y-77325000D02*
X227875000Y-73805509D01*
X221460000Y-67925000D02*
X221080000Y-68305000D01*
X227875000Y-71137500D02*
X224662500Y-67925000D01*
X227875000Y-73805509D02*
X227875000Y-71137500D01*
X220625000Y-77325000D02*
X224355509Y-77325000D01*
X219910001Y-69474999D02*
X221080000Y-68305000D01*
X212049999Y-69474999D02*
X219910001Y-69474999D01*
X210800000Y-68225000D02*
X212049999Y-69474999D01*
X235562499Y-69174999D02*
X234612500Y-68225000D01*
X237293750Y-86850000D02*
X237293750Y-79706250D01*
X230425000Y-68225000D02*
X230200000Y-68450000D01*
X244843751Y-69174999D02*
X235562499Y-69174999D01*
X239675000Y-77325000D02*
X234612500Y-72262500D01*
X237293750Y-79706250D02*
X239675000Y-77325000D01*
X246093750Y-67925000D02*
X244843751Y-69174999D01*
X234612500Y-72262500D02*
X234612500Y-68225000D01*
X234612500Y-68225000D02*
X230425000Y-68225000D01*
X49175000Y-77325000D02*
X49175000Y-70375000D01*
X49175000Y-70375000D02*
X51290000Y-68260000D01*
X183360000Y-67925000D02*
X182980000Y-68305000D01*
X181810001Y-69474999D02*
X182980000Y-68305000D01*
X189980000Y-71342500D02*
X186562500Y-67925000D01*
X182525000Y-77325000D02*
X186255509Y-77325000D01*
X189980000Y-73600509D02*
X189980000Y-71342500D01*
X172700000Y-68225000D02*
X173949999Y-69474999D01*
X173949999Y-69474999D02*
X181810001Y-69474999D01*
X186255509Y-77325000D02*
X189980000Y-73600509D01*
X186562500Y-67925000D02*
X183360000Y-67925000D01*
X145456000Y-97269734D02*
X140610000Y-92423734D01*
X155200249Y-99888001D02*
X166380749Y-99888001D01*
X140610000Y-92423734D02*
X140610000Y-91090000D01*
X171244000Y-95024750D02*
X170193750Y-96075000D01*
X171244000Y-93838000D02*
X171244000Y-95024750D01*
X166380749Y-99888001D02*
X170193750Y-96075000D01*
X171244000Y-93838000D02*
X171244000Y-93087750D01*
X153950250Y-101138000D02*
X155200249Y-99888001D01*
X153950250Y-101138000D02*
X147556500Y-101138000D01*
X146506250Y-87275000D02*
X144425000Y-87275000D01*
X147556500Y-101138000D02*
X145456000Y-99037500D01*
X171244000Y-93087750D02*
X165131250Y-86975000D01*
X144425000Y-87275000D02*
X140610000Y-91090000D01*
X145456000Y-99037500D02*
X145456000Y-97269734D01*
X183085000Y-86975000D02*
X184570000Y-85490000D01*
X178168751Y-88224999D02*
X178168751Y-99287251D01*
X178168751Y-99287251D02*
X179719000Y-100837500D01*
X179418750Y-86975000D02*
X178168751Y-88224999D01*
X179418750Y-86975000D02*
X183085000Y-86975000D01*
X207356250Y-91100000D02*
X208400000Y-91100000D01*
X191468750Y-85925000D02*
X193018750Y-84375000D01*
X193018750Y-84375000D02*
X200631250Y-84375000D01*
X201149750Y-100837500D02*
X201149750Y-97306500D01*
X200631250Y-84375000D02*
X203231250Y-86975000D01*
X201149750Y-97306500D02*
X207356250Y-91100000D01*
X184606500Y-92038000D02*
X190719500Y-85925000D01*
X203231250Y-86975000D02*
X207356250Y-91100000D01*
X190719500Y-85925000D02*
X191468750Y-85925000D01*
X241453750Y-96375000D02*
X246773750Y-91055000D01*
X237293750Y-96375000D02*
X241453750Y-96375000D01*
X218550741Y-86975000D02*
X215031250Y-90494491D01*
X227262500Y-94175000D02*
X230342500Y-91095000D01*
X222281250Y-86975000D02*
X218550741Y-86975000D01*
X219265000Y-96375000D02*
X220290000Y-95350000D01*
X230342500Y-89622500D02*
X230342500Y-91055000D01*
X220290000Y-95350000D02*
X226087500Y-95350000D01*
X215031250Y-95543750D02*
X215862500Y-96375000D01*
X215031250Y-90494491D02*
X215031250Y-95543750D01*
X227695000Y-86975000D02*
X230342500Y-89622500D01*
X222281250Y-86975000D02*
X227695000Y-86975000D01*
X215862500Y-96375000D02*
X219265000Y-96375000D01*
X226087500Y-95350000D02*
X227262500Y-94175000D01*
X230342500Y-91095000D02*
X230342500Y-91055000D01*
X56318750Y-96375000D02*
X55068751Y-95125001D01*
X55068751Y-90551249D02*
X58645000Y-86975000D01*
X55068751Y-95125001D02*
X55068751Y-90551249D01*
X58645000Y-86975000D02*
X62737500Y-86975000D01*
X62737500Y-86975000D02*
X65798750Y-90036250D01*
X65798750Y-90036250D02*
X65798750Y-91055000D01*
X70310000Y-92921304D02*
X70310000Y-90970000D01*
X75068750Y-87275000D02*
X71373750Y-90970000D01*
X91612250Y-100837500D02*
X93993000Y-100837500D01*
X77749500Y-100360804D02*
X70310000Y-92921304D01*
X87381251Y-88524999D02*
X88931250Y-86975000D01*
X77749500Y-101138000D02*
X77749500Y-100360804D01*
X78999499Y-99888001D02*
X90662751Y-99888001D01*
X75068750Y-87275000D02*
X76318749Y-88524999D01*
X93993000Y-100837500D02*
X93993500Y-100838000D01*
X71373750Y-90970000D02*
X70310000Y-90970000D01*
X77749500Y-101138000D02*
X78999499Y-99888001D01*
X76318749Y-88524999D02*
X87381251Y-88524999D01*
X90662751Y-99888001D02*
X91612250Y-100837500D01*
X39605000Y-36205000D02*
X45690000Y-42290000D01*
X192005000Y-36205000D02*
X197625000Y-41825000D01*
X115805000Y-36205000D02*
X118800000Y-39200000D01*
X109465000Y-41825000D02*
X115085000Y-36205000D01*
X151150000Y-32390000D02*
X153905000Y-35145000D01*
X68565000Y-41825000D02*
X109465000Y-41825000D01*
X153905000Y-36205000D02*
X158475000Y-40775000D01*
X153905000Y-35145000D02*
X153905000Y-36205000D01*
X66675000Y-39935000D02*
X68565000Y-41825000D01*
X66675000Y-37235000D02*
X66675000Y-39935000D01*
X169867968Y-41860000D02*
X190200000Y-41860000D01*
X168782968Y-40775000D02*
X169867968Y-41860000D01*
X61620000Y-42290000D02*
X67705000Y-36205000D01*
X192005000Y-40055000D02*
X192005000Y-36205000D01*
X118800000Y-39200000D02*
X150910000Y-39200000D01*
X230105000Y-39987032D02*
X230105000Y-36205000D01*
X45690000Y-42290000D02*
X61620000Y-42290000D01*
X228267032Y-41825000D02*
X230105000Y-39987032D01*
X115085000Y-36205000D02*
X115805000Y-36205000D01*
X67705000Y-36205000D02*
X66675000Y-37235000D01*
X197625000Y-41825000D02*
X228267032Y-41825000D01*
X150910000Y-39200000D02*
X153905000Y-36205000D01*
X158475000Y-40775000D02*
X168782968Y-40775000D01*
X190200000Y-41860000D02*
X192005000Y-40055000D01*
X161460000Y-32498804D02*
X166138804Y-27820000D01*
X151326304Y-31675000D02*
X155898804Y-36247500D01*
X248920000Y-27820000D02*
X250055000Y-28955000D01*
X166138804Y-27820000D02*
X208140000Y-27820000D01*
X124432968Y-31675000D02*
X130955509Y-31675000D01*
X147110000Y-31675000D02*
X151326304Y-31675000D01*
X155898804Y-36247500D02*
X162360000Y-36247500D01*
X63780000Y-31080000D02*
X96278696Y-31080000D01*
X139385000Y-31675000D02*
X147110000Y-31675000D01*
X211955000Y-31635000D02*
X211955000Y-35305000D01*
X123837968Y-31080000D02*
X124432968Y-31675000D01*
X208140000Y-27820000D02*
X211955000Y-31635000D01*
X97660000Y-35300000D02*
X96755000Y-36205000D01*
X250055000Y-28955000D02*
X250055000Y-35305000D01*
X208140000Y-27820000D02*
X248920000Y-27820000D01*
X58655000Y-36205000D02*
X63780000Y-31080000D01*
X211955000Y-35305000D02*
X211055000Y-36205000D01*
X134855000Y-35574491D02*
X134855000Y-36205000D01*
X147100000Y-30450000D02*
X147100000Y-31665000D01*
X147100000Y-31665000D02*
X147110000Y-31675000D01*
X134855000Y-36205000D02*
X139385000Y-31675000D01*
X130955509Y-31675000D02*
X134855000Y-35574491D01*
X161460000Y-35347500D02*
X161460000Y-32498804D01*
X250055000Y-35305000D02*
X249155000Y-36205000D01*
X96278696Y-31080000D02*
X123837968Y-31080000D01*
X97660000Y-32461304D02*
X97660000Y-35300000D01*
X162360000Y-36247500D02*
X161460000Y-35347500D01*
X96278696Y-31080000D02*
X97660000Y-32461304D01*
X158905000Y-55897032D02*
X163917968Y-60910000D01*
X82705000Y-55255000D02*
X82705000Y-55897032D01*
X147100000Y-45665000D02*
X147090000Y-45675000D01*
X153285000Y-60875000D02*
X158905000Y-55255000D01*
X142880000Y-60875000D02*
X153285000Y-60875000D01*
X142875000Y-60870000D02*
X142880000Y-60875000D01*
X158905000Y-55255000D02*
X158905000Y-55897032D01*
X77085000Y-60875000D02*
X82705000Y-55255000D01*
X115080000Y-60980000D02*
X120805000Y-55255000D01*
X44605000Y-55255000D02*
X44605000Y-55897032D01*
X147100000Y-46875000D02*
X142875000Y-51100000D01*
X125782968Y-60875000D02*
X142880000Y-60875000D01*
X87787968Y-60980000D02*
X115080000Y-60980000D01*
X197005000Y-55255000D02*
X197005000Y-55897032D01*
X82705000Y-55897032D02*
X87787968Y-60980000D01*
X230105000Y-59075000D02*
X230105000Y-55255000D01*
X49582968Y-60875000D02*
X77085000Y-60875000D01*
X44605000Y-55897032D02*
X49582968Y-60875000D01*
X197005000Y-55897032D02*
X202117968Y-61010000D01*
X163917968Y-60910000D02*
X191350000Y-60910000D01*
X120805000Y-55897032D02*
X125782968Y-60875000D01*
X228170000Y-61010000D02*
X230105000Y-59075000D01*
X142875000Y-51100000D02*
X142875000Y-60870000D01*
X191350000Y-60910000D02*
X197005000Y-55255000D01*
X120805000Y-55255000D02*
X120805000Y-55897032D01*
X147100000Y-42160000D02*
X147100000Y-45665000D01*
X202117968Y-61010000D02*
X228170000Y-61010000D01*
X144560000Y-46275000D02*
X176629532Y-46275000D01*
X178855000Y-54355000D02*
X177955000Y-55255000D01*
X216955000Y-48500468D02*
X216955000Y-54355000D01*
X250055000Y-54355000D02*
X249155000Y-55255000D01*
X216955000Y-54355000D02*
X216055000Y-55255000D01*
X176629532Y-46275000D02*
X214729532Y-46275000D01*
X250055000Y-50175000D02*
X250055000Y-54355000D01*
X176629532Y-46275000D02*
X178855000Y-48500468D01*
X72635000Y-46275000D02*
X100429532Y-46275000D01*
X102710000Y-48555468D02*
X102710000Y-54300000D01*
X63655000Y-55255000D02*
X72635000Y-46275000D01*
X100429532Y-46275000D02*
X138529532Y-46275000D01*
X138529532Y-46275000D02*
X144560000Y-46275000D01*
X214729532Y-46275000D02*
X246155000Y-46275000D01*
X100429532Y-46275000D02*
X102710000Y-48555468D01*
X140755000Y-48500468D02*
X140755000Y-54355000D01*
X214729532Y-46275000D02*
X216955000Y-48500468D01*
X138529532Y-46275000D02*
X140755000Y-48500468D01*
X140755000Y-54355000D02*
X139855000Y-55255000D01*
X102710000Y-54300000D02*
X101755000Y-55255000D01*
X178855000Y-48500468D02*
X178855000Y-54355000D01*
X144560000Y-42160000D02*
X144560000Y-46275000D01*
X246155000Y-46275000D02*
X250055000Y-50175000D01*
X162340000Y-42160000D02*
X162450000Y-42270000D01*
X244680000Y-42270000D02*
X246675000Y-40275000D01*
X162450000Y-42270000D02*
X244680000Y-42270000D01*
X145230000Y-64655000D02*
X144880000Y-65005000D01*
X158990000Y-64655000D02*
X162231304Y-64655000D01*
X183330000Y-64655000D02*
X200331304Y-64655000D01*
X106430000Y-64655000D02*
X106780000Y-65005000D01*
X182980000Y-65005000D02*
X183330000Y-64655000D01*
X52946196Y-64652500D02*
X51888696Y-65710000D01*
X200331304Y-64655000D02*
X201431304Y-65755000D01*
X88630000Y-65453696D02*
X88630000Y-64670686D01*
X124131304Y-64655000D02*
X107130000Y-64655000D01*
X164528696Y-65755000D02*
X165628696Y-64655000D01*
X107130000Y-64655000D02*
X106780000Y-65005000D01*
X55170000Y-65002500D02*
X54820000Y-64652500D01*
X202628696Y-65755000D02*
X203728696Y-64655000D01*
X55170000Y-65002500D02*
X55520000Y-64652500D01*
X144880000Y-65005000D02*
X144530000Y-64655000D01*
X144530000Y-64655000D02*
X127528696Y-64655000D01*
X158590000Y-64655000D02*
X145230000Y-64655000D01*
X201431304Y-65755000D02*
X202628696Y-65755000D01*
X86028804Y-64652500D02*
X87131304Y-65755000D01*
X158790000Y-64855000D02*
X158990000Y-64655000D01*
X43517500Y-65710000D02*
X42800000Y-64992500D01*
X182630000Y-64655000D02*
X182980000Y-65005000D01*
X54820000Y-64652500D02*
X52946196Y-64652500D01*
X162231304Y-64655000D02*
X163331304Y-65755000D01*
X127528696Y-64655000D02*
X126428696Y-65755000D01*
X158790000Y-64855000D02*
X158590000Y-64655000D01*
X165628696Y-64655000D02*
X182630000Y-64655000D01*
X126428696Y-65755000D02*
X125231304Y-65755000D01*
X87131304Y-65755000D02*
X88328696Y-65755000D01*
X55520000Y-64652500D02*
X86028804Y-64652500D01*
X203728696Y-64655000D02*
X220730000Y-64655000D01*
X125231304Y-65755000D02*
X124131304Y-64655000D01*
X51888696Y-65710000D02*
X43517500Y-65710000D01*
X163331304Y-65755000D02*
X164528696Y-65755000D01*
X88328696Y-65755000D02*
X88630000Y-65453696D01*
X88630000Y-64670686D02*
X88645686Y-64655000D01*
X220730000Y-64655000D02*
X221080000Y-65005000D01*
X88645686Y-64655000D02*
X106430000Y-64655000D01*
X202030000Y-65005000D02*
X202780000Y-64255000D01*
X159400000Y-63230000D02*
X159400000Y-64255000D01*
X87730000Y-65005000D02*
X88480000Y-64255000D01*
X88480000Y-64255000D02*
X125080000Y-64255000D01*
X163930000Y-65005000D02*
X164680000Y-64255000D01*
X159400000Y-64255000D02*
X163180000Y-64255000D01*
X201280000Y-64255000D02*
X202030000Y-65005000D01*
X163180000Y-64255000D02*
X163930000Y-65005000D01*
X51997500Y-64252500D02*
X86977500Y-64252500D01*
X229305000Y-64255000D02*
X230200000Y-65150000D01*
X164680000Y-64255000D02*
X201280000Y-64255000D01*
X125080000Y-64255000D02*
X125830000Y-65005000D01*
X126580000Y-64255000D02*
X159400000Y-64255000D01*
X86977500Y-64252500D02*
X87730000Y-65005000D01*
X125830000Y-65005000D02*
X126580000Y-64255000D01*
X51290000Y-64960000D02*
X51997500Y-64252500D01*
X202780000Y-64255000D02*
X229305000Y-64255000D01*
X185470000Y-84750000D02*
X185470000Y-87890000D01*
X184570000Y-88790000D02*
X183056500Y-90303500D01*
X46606250Y-98975000D02*
X63960782Y-98975000D01*
X206510176Y-98975000D02*
X225722500Y-98975000D01*
X186030000Y-103738000D02*
X201747176Y-103738000D01*
X185470000Y-87890000D02*
X184570000Y-88790000D01*
X74310000Y-98690000D02*
X74000000Y-98380000D01*
X41986250Y-94355000D02*
X46606250Y-98975000D01*
X185528000Y-104240000D02*
X186030000Y-103738000D01*
X183056500Y-96286500D02*
X186030000Y-99260000D01*
X183056500Y-90303500D02*
X183056500Y-96286500D01*
X83135220Y-104240000D02*
X185528000Y-104240000D01*
X63960782Y-98975000D02*
X65798750Y-97137032D01*
X77110000Y-98380000D02*
X77275220Y-98380000D01*
X225722500Y-98975000D02*
X230342500Y-94355000D01*
X69823750Y-98380000D02*
X65798750Y-94355000D01*
X65798750Y-97137032D02*
X65798750Y-94355000D01*
X180330000Y-45675000D02*
X160775000Y-45675000D01*
X186030000Y-99260000D02*
X186030000Y-103738000D01*
X201747176Y-103738000D02*
X206510176Y-98975000D01*
X74000000Y-98380000D02*
X69823750Y-98380000D01*
X77275220Y-98380000D02*
X78277610Y-99382390D01*
X160775000Y-45675000D02*
X157260000Y-42160000D01*
X172270602Y-71550602D02*
X185470000Y-84750000D01*
X79652610Y-100757390D02*
X83135220Y-104240000D01*
X187640500Y-102387500D02*
X201791782Y-102387500D01*
X186890000Y-103138000D02*
X187640500Y-102387500D01*
X232331718Y-93605000D02*
X236656718Y-97930000D01*
X220170468Y-97925000D02*
X222345468Y-95750000D01*
X159294314Y-42160000D02*
X159800000Y-42160000D01*
X131490000Y-67307032D02*
X131490000Y-65390000D01*
X140610000Y-94390000D02*
X140610000Y-96383532D01*
X146780000Y-40540000D02*
X157674314Y-40540000D01*
X245171718Y-94355000D02*
X246773750Y-94355000D01*
X140610000Y-94390000D02*
X136450000Y-90230000D01*
X229743804Y-93605000D02*
X232331718Y-93605000D01*
X201791782Y-102387500D02*
X208400000Y-95779282D01*
X241596718Y-97930000D02*
X245171718Y-94355000D01*
X136450000Y-90230000D02*
X136450000Y-72267032D01*
X157674314Y-40540000D02*
X159294314Y-42160000D01*
X70810166Y-94270000D02*
X74168311Y-97628145D01*
X227598804Y-95750000D02*
X229743804Y-93605000D01*
X75950000Y-97650000D02*
X78351999Y-97650000D01*
X222345468Y-95750000D02*
X227598804Y-95750000D01*
X124762000Y-103738000D02*
X132050000Y-96450000D01*
X140610000Y-96383532D02*
X147976468Y-103750000D01*
X78351999Y-97650000D02*
X79990000Y-99288001D01*
X208400000Y-94400000D02*
X211925000Y-97925000D01*
X136450000Y-72267032D02*
X131490000Y-67307032D01*
X211925000Y-97925000D02*
X220170468Y-97925000D01*
X132050000Y-96450000D02*
X132050000Y-94390000D01*
X84107468Y-103738000D02*
X124762000Y-103738000D01*
X81251140Y-100658860D02*
X81251140Y-100881672D01*
X184830000Y-103750000D02*
X185270000Y-103310000D01*
X81251140Y-100881672D02*
X84107468Y-103738000D01*
X70310000Y-94270000D02*
X70810166Y-94270000D01*
X208400000Y-95779282D02*
X208400000Y-94400000D01*
X147976468Y-103750000D02*
X184830000Y-103750000D01*
X236656718Y-97930000D02*
X241596718Y-97930000D01*
X132050000Y-94390000D02*
X140610000Y-94390000D01*
X184498701Y-62787328D02*
X183221373Y-61510000D01*
X183221373Y-61510000D02*
X180270000Y-61510000D01*
X185609265Y-65390735D02*
X186785953Y-65390735D01*
X160559925Y-28700075D02*
X162340000Y-26920000D01*
X160559925Y-29081110D02*
X160559925Y-28700075D01*
X188512500Y-68718009D02*
X208969491Y-89175000D01*
X208969491Y-89175000D02*
X212762500Y-89175000D01*
X186785953Y-65390735D02*
X188512500Y-67117282D01*
X188512500Y-67117282D02*
X188512500Y-68718009D01*
X190380000Y-71731304D02*
X212762500Y-94113804D01*
X188112500Y-67282968D02*
X188112500Y-68909314D01*
X190380000Y-71176814D02*
X190380000Y-71731304D01*
X187204532Y-66375000D02*
X188112500Y-67282968D01*
X182690000Y-62110000D02*
X180021471Y-62110000D01*
X179469997Y-61558526D02*
X179469997Y-61510000D01*
X159760000Y-29070000D02*
X159800000Y-29030000D01*
X184790000Y-65420000D02*
X185745000Y-66375000D01*
X188112500Y-68909314D02*
X190380000Y-71176814D01*
X183933015Y-63353015D02*
X182690000Y-62110000D01*
X185745000Y-66375000D02*
X187204532Y-66375000D01*
X180021471Y-62110000D02*
X179469997Y-61558526D01*
X159800000Y-29030000D02*
X159800000Y-26920000D01*
X212762500Y-94113804D02*
X212762500Y-94175000D01*
X177680000Y-35830000D02*
X176100000Y-37410000D01*
X177680000Y-31810000D02*
X177680000Y-35830000D01*
X214062500Y-86898282D02*
X211490000Y-84325782D01*
X29230000Y-56977968D02*
X29230000Y-45570000D01*
X212762500Y-91675000D02*
X214062500Y-90375000D01*
X133935685Y-25720000D02*
X138280000Y-25720000D01*
X138280000Y-25720000D02*
X139480000Y-26920000D01*
X129510508Y-27820000D02*
X130210508Y-28520000D01*
X188945000Y-44140000D02*
X188925000Y-44160000D01*
X25650000Y-73915000D02*
X24440000Y-75125000D01*
X130210508Y-28520000D02*
X137880000Y-28520000D01*
X24440000Y-78085000D02*
X25640000Y-79285000D01*
X146793859Y-38300000D02*
X147042210Y-38051649D01*
X29230000Y-59572032D02*
X28575000Y-58917032D01*
X142020000Y-26920000D02*
X139480000Y-26920000D01*
X28575000Y-35878806D02*
X36633806Y-27820000D01*
X139310000Y-20895000D02*
X144690000Y-20895000D01*
X214062500Y-90375000D02*
X214062500Y-86898282D01*
X211490000Y-84325782D02*
X211490000Y-71120000D01*
X28575000Y-57632968D02*
X29230000Y-56977968D01*
X144700000Y-34955000D02*
X144700000Y-38300000D01*
X132075000Y-23859315D02*
X133935685Y-25720000D01*
X132840000Y-20905000D02*
X132075000Y-21670000D01*
X137880000Y-28520000D02*
X139480000Y-26920000D01*
X36633806Y-27820000D02*
X129510508Y-27820000D01*
X29230000Y-45570000D02*
X29230000Y-40522032D01*
X178100000Y-37410000D02*
X176925000Y-38585000D01*
X25640000Y-68525000D02*
X24450000Y-69715000D01*
X142020000Y-32275000D02*
X144700000Y-34955000D01*
X29240000Y-45560000D02*
X29230000Y-45570000D01*
X211490000Y-71120000D02*
X208410000Y-68040000D01*
X24450000Y-69715000D02*
X24450000Y-72715000D01*
X190125000Y-44140000D02*
X188945000Y-44140000D01*
X28575000Y-39867032D02*
X28575000Y-35878806D01*
X136940000Y-42160000D02*
X133540000Y-45560000D01*
X133940000Y-20905000D02*
X132840000Y-20905000D01*
X208410000Y-68040000D02*
X208410000Y-65720000D01*
X133540000Y-45560000D02*
X29240000Y-45560000D01*
X133940000Y-20905000D02*
X139300000Y-20905000D01*
X205770000Y-63070000D02*
X204875735Y-62175735D01*
X24450000Y-72715000D02*
X25650000Y-73915000D01*
X28575000Y-58917032D02*
X28575000Y-57632968D01*
X142020000Y-26920000D02*
X142020000Y-31075000D01*
X25640000Y-79285000D02*
X29230000Y-75695000D01*
X132075000Y-21670000D02*
X132075000Y-23859315D01*
X144690000Y-20895000D02*
X144700000Y-20885000D01*
X29230000Y-40522032D02*
X28575000Y-39867032D01*
X139300000Y-20905000D02*
X139310000Y-20895000D01*
X29230000Y-75695000D02*
X29230000Y-59572032D01*
X205770000Y-63080000D02*
X205770000Y-63070000D01*
X165605000Y-38585000D02*
X165100000Y-38080000D01*
X24440000Y-75125000D02*
X24440000Y-78085000D01*
X144700000Y-38300000D02*
X146793859Y-38300000D01*
X176925000Y-38585000D02*
X165605000Y-38585000D01*
X178255000Y-30885000D02*
X176995000Y-30885000D01*
X176995000Y-30885000D02*
X170400000Y-37480000D01*
X179180000Y-31810000D02*
X178255000Y-30885000D01*
X170400000Y-37480000D02*
X164430000Y-37480000D01*
X130376194Y-28120000D02*
X129676194Y-27420000D01*
X147132943Y-28650000D02*
X151081571Y-28650000D01*
X28630000Y-57012282D02*
X28175000Y-57467282D01*
X28175000Y-35646372D02*
X28175000Y-40032718D01*
X145900000Y-26422943D02*
X145900000Y-27417057D01*
X146230000Y-22100000D02*
X146923319Y-22793319D01*
X133940000Y-18365000D02*
X131675000Y-20630000D01*
X28175000Y-40032718D02*
X28630000Y-40487718D01*
X32410000Y-44560000D02*
X29840000Y-44560000D01*
X146923319Y-25399624D02*
X145900000Y-26422943D01*
X151081571Y-28650000D02*
X156971571Y-34540000D01*
X28630000Y-40487718D02*
X28630000Y-57012282D01*
X133060000Y-25410001D02*
X133060000Y-27687848D01*
X28175000Y-57467282D02*
X28175000Y-74210000D01*
X129676194Y-27420000D02*
X36401372Y-27420000D01*
X113925000Y-44960000D02*
X112954314Y-44960000D01*
X112554314Y-44560000D02*
X32410000Y-44560000D01*
X132627848Y-28120000D02*
X130376194Y-28120000D01*
X36401372Y-27420000D02*
X28175000Y-35646372D01*
X156971571Y-34540000D02*
X157260000Y-34540000D01*
X112954314Y-44960000D02*
X112682157Y-44687843D01*
X28175000Y-74210000D02*
X25640000Y-76745000D01*
X146923319Y-22793319D02*
X146923319Y-25399624D01*
X131675000Y-20630000D02*
X131675000Y-24025001D01*
X133060000Y-27687848D02*
X132627848Y-28120000D01*
X141950000Y-22100000D02*
X146230000Y-22100000D01*
X112682157Y-44687843D02*
X112554314Y-44560000D01*
X29840000Y-44560000D02*
X29830000Y-44570000D01*
X131675000Y-24025001D02*
X133060000Y-25410001D01*
X145900000Y-27417057D02*
X147132943Y-28650000D01*
X151247257Y-28250000D02*
X151947258Y-28950000D01*
X112920000Y-44360000D02*
X112720000Y-44160000D01*
X131275000Y-25255510D02*
X129510509Y-27020000D01*
X139310000Y-18355000D02*
X140500000Y-19545000D01*
X149272943Y-28250000D02*
X151247257Y-28250000D01*
X150480000Y-30800000D02*
X149040000Y-30800000D01*
X140500000Y-19545000D02*
X145760000Y-19545000D01*
X28030000Y-40453404D02*
X28030000Y-57046596D01*
X151947258Y-28950000D02*
X154210000Y-28950000D01*
X28030000Y-57046596D02*
X27775000Y-57301597D01*
X27775000Y-35480687D02*
X27775000Y-40198404D01*
X27775000Y-57301597D02*
X27775000Y-69250000D01*
X147323319Y-21108319D02*
X147323319Y-24753320D01*
X112720000Y-44160000D02*
X112559315Y-44160000D01*
X148440000Y-25870001D02*
X148440000Y-27417057D01*
X114498383Y-44360000D02*
X112920000Y-44360000D01*
X148440000Y-27417057D02*
X149272943Y-28250000D01*
X154210000Y-28950000D02*
X157260000Y-32000000D01*
X147323319Y-24753320D02*
X148440000Y-25870001D01*
X27775000Y-40198404D02*
X28030000Y-40453404D01*
X138120000Y-17165000D02*
X133442943Y-17165000D01*
X36235686Y-27020000D02*
X27775000Y-35480687D01*
X129510509Y-27020000D02*
X36235686Y-27020000D01*
X27775000Y-69250000D02*
X25650000Y-71375000D01*
X139310000Y-18355000D02*
X138120000Y-17165000D01*
X112559315Y-44160000D02*
X31920000Y-44160000D01*
X131275000Y-19332943D02*
X131275000Y-25255510D01*
X30268529Y-44160000D02*
X29878526Y-43769997D01*
X31920000Y-44160000D02*
X30268529Y-44160000D01*
X133442943Y-17165000D02*
X131275000Y-19332943D01*
X145760000Y-19545000D02*
X147323319Y-21108319D01*
X29878526Y-43769997D02*
X29830000Y-43769997D01*
X144700000Y-18345000D02*
X143045000Y-16690000D01*
X149221438Y-25586262D02*
X150026262Y-25586262D01*
X143045000Y-16690000D02*
X133352258Y-16690000D01*
X147723319Y-20443319D02*
X147723319Y-24088143D01*
X130875000Y-25089824D02*
X129344824Y-26620000D01*
X144700000Y-18345000D02*
X145625000Y-18345000D01*
X27375000Y-64250000D02*
X25640000Y-65985000D01*
X27430000Y-40419089D02*
X27430000Y-57080912D01*
X129344824Y-26620000D02*
X36070000Y-26620000D01*
X145625000Y-18345000D02*
X147723319Y-20443319D01*
X150500000Y-29450000D02*
X149050000Y-29450000D01*
X150980000Y-26540000D02*
X150980000Y-27417057D01*
X36070000Y-26620000D02*
X27375000Y-35315002D01*
X27430000Y-57080912D02*
X27375000Y-57135912D01*
X150026262Y-25586262D02*
X150980000Y-26540000D01*
X31240000Y-43760000D02*
X30449994Y-42969994D01*
X112725000Y-43760000D02*
X31240000Y-43760000D01*
X30449994Y-42969994D02*
X29830000Y-42969994D01*
X147723319Y-24088143D02*
X149221438Y-25586262D01*
X152112943Y-28550000D02*
X156350000Y-28550000D01*
X27375000Y-40364089D02*
X27430000Y-40419089D01*
X27375000Y-57135912D02*
X27375000Y-64250000D01*
X113925000Y-43760000D02*
X112725000Y-43760000D01*
X149050000Y-29450000D02*
X149040000Y-29440000D01*
X27375000Y-35315002D02*
X27375000Y-40364089D01*
X130875000Y-19167258D02*
X130875000Y-25089824D01*
X133352258Y-16690000D02*
X130875000Y-19167258D01*
X150980000Y-27417057D02*
X152112943Y-28550000D01*
X156350000Y-28550000D02*
X157260000Y-29460000D01*
M02*
