G04 #@! TF.GenerationSoftware,KiCad,Pcbnew,7.0.11-7.0.11~ubuntu22.04.1*
G04 #@! TF.CreationDate,2024-05-14T18:32:02+02:00*
G04 #@! TF.ProjectId,alpha4,616c7068-6134-42e6-9b69-6361645f7063,rev?*
G04 #@! TF.SameCoordinates,Original*
G04 #@! TF.FileFunction,Legend,Top*
G04 #@! TF.FilePolarity,Positive*
%FSLAX46Y46*%
G04 Gerber Fmt 4.6, Leading zero omitted, Abs format (unit mm)*
G04 Created by KiCad (PCBNEW 7.0.11-7.0.11~ubuntu22.04.1) date 2024-05-14 18:32:02*
%MOMM*%
%LPD*%
G01*
G04 APERTURE LIST*
G04 Aperture macros list*
%AMRoundRect*
0 Rectangle with rounded corners*
0 $1 Rounding radius*
0 $2 $3 $4 $5 $6 $7 $8 $9 X,Y pos of 4 corners*
0 Add a 4 corners polygon primitive as box body*
4,1,4,$2,$3,$4,$5,$6,$7,$8,$9,$2,$3,0*
0 Add four circle primitives for the rounded corners*
1,1,$1+$1,$2,$3*
1,1,$1+$1,$4,$5*
1,1,$1+$1,$6,$7*
1,1,$1+$1,$8,$9*
0 Add four rect primitives between the rounded corners*
20,1,$1+$1,$2,$3,$4,$5,0*
20,1,$1+$1,$4,$5,$6,$7,0*
20,1,$1+$1,$6,$7,$8,$9,0*
20,1,$1+$1,$8,$9,$2,$3,0*%
G04 Aperture macros list end*
%ADD10C,0.100000*%
%ADD11C,5.000000*%
%ADD12C,2.500000*%
%ADD13R,1.800000X1.800000*%
%ADD14C,1.800000*%
%ADD15O,1.200000X1.750000*%
%ADD16RoundRect,0.250000X0.350000X0.625000X-0.350000X0.625000X-0.350000X-0.625000X0.350000X-0.625000X0*%
%ADD17RoundRect,0.450000X-0.450000X0.450000X-0.450000X-0.450000X0.450000X-0.450000X0.450000X0.450000X0*%
%ADD18O,4.340000X1.800000*%
%ADD19C,0.850000*%
G04 APERTURE END LIST*
D10*
X217463884Y-95198609D02*
X217797217Y-95198609D01*
X217940074Y-95722419D02*
X217463884Y-95722419D01*
X217463884Y-95722419D02*
X217463884Y-94722419D01*
X217463884Y-94722419D02*
X217940074Y-94722419D01*
X218368646Y-95055752D02*
X218368646Y-95722419D01*
X218368646Y-95150990D02*
X218416265Y-95103371D01*
X218416265Y-95103371D02*
X218511503Y-95055752D01*
X218511503Y-95055752D02*
X218654360Y-95055752D01*
X218654360Y-95055752D02*
X218749598Y-95103371D01*
X218749598Y-95103371D02*
X218797217Y-95198609D01*
X218797217Y-95198609D02*
X218797217Y-95722419D01*
X219701979Y-95674800D02*
X219606741Y-95722419D01*
X219606741Y-95722419D02*
X219416265Y-95722419D01*
X219416265Y-95722419D02*
X219321027Y-95674800D01*
X219321027Y-95674800D02*
X219273408Y-95627180D01*
X219273408Y-95627180D02*
X219225789Y-95531942D01*
X219225789Y-95531942D02*
X219225789Y-95246228D01*
X219225789Y-95246228D02*
X219273408Y-95150990D01*
X219273408Y-95150990D02*
X219321027Y-95103371D01*
X219321027Y-95103371D02*
X219416265Y-95055752D01*
X219416265Y-95055752D02*
X219606741Y-95055752D01*
X219606741Y-95055752D02*
X219701979Y-95103371D01*
X220273408Y-95722419D02*
X220178170Y-95674800D01*
X220178170Y-95674800D02*
X220130551Y-95627180D01*
X220130551Y-95627180D02*
X220082932Y-95531942D01*
X220082932Y-95531942D02*
X220082932Y-95246228D01*
X220082932Y-95246228D02*
X220130551Y-95150990D01*
X220130551Y-95150990D02*
X220178170Y-95103371D01*
X220178170Y-95103371D02*
X220273408Y-95055752D01*
X220273408Y-95055752D02*
X220416265Y-95055752D01*
X220416265Y-95055752D02*
X220511503Y-95103371D01*
X220511503Y-95103371D02*
X220559122Y-95150990D01*
X220559122Y-95150990D02*
X220606741Y-95246228D01*
X220606741Y-95246228D02*
X220606741Y-95531942D01*
X220606741Y-95531942D02*
X220559122Y-95627180D01*
X220559122Y-95627180D02*
X220511503Y-95674800D01*
X220511503Y-95674800D02*
X220416265Y-95722419D01*
X220416265Y-95722419D02*
X220273408Y-95722419D01*
X221463884Y-95722419D02*
X221463884Y-94722419D01*
X221463884Y-95674800D02*
X221368646Y-95722419D01*
X221368646Y-95722419D02*
X221178170Y-95722419D01*
X221178170Y-95722419D02*
X221082932Y-95674800D01*
X221082932Y-95674800D02*
X221035313Y-95627180D01*
X221035313Y-95627180D02*
X220987694Y-95531942D01*
X220987694Y-95531942D02*
X220987694Y-95246228D01*
X220987694Y-95246228D02*
X221035313Y-95150990D01*
X221035313Y-95150990D02*
X221082932Y-95103371D01*
X221082932Y-95103371D02*
X221178170Y-95055752D01*
X221178170Y-95055752D02*
X221368646Y-95055752D01*
X221368646Y-95055752D02*
X221463884Y-95103371D01*
X222321027Y-95674800D02*
X222225789Y-95722419D01*
X222225789Y-95722419D02*
X222035313Y-95722419D01*
X222035313Y-95722419D02*
X221940075Y-95674800D01*
X221940075Y-95674800D02*
X221892456Y-95579561D01*
X221892456Y-95579561D02*
X221892456Y-95198609D01*
X221892456Y-95198609D02*
X221940075Y-95103371D01*
X221940075Y-95103371D02*
X222035313Y-95055752D01*
X222035313Y-95055752D02*
X222225789Y-95055752D01*
X222225789Y-95055752D02*
X222321027Y-95103371D01*
X222321027Y-95103371D02*
X222368646Y-95198609D01*
X222368646Y-95198609D02*
X222368646Y-95293847D01*
X222368646Y-95293847D02*
X221892456Y-95389085D01*
X222797218Y-95722419D02*
X222797218Y-95055752D01*
X222797218Y-95246228D02*
X222844837Y-95150990D01*
X222844837Y-95150990D02*
X222892456Y-95103371D01*
X222892456Y-95103371D02*
X222987694Y-95055752D01*
X222987694Y-95055752D02*
X223082932Y-95055752D01*
X133275312Y-23032419D02*
X132941979Y-22556228D01*
X132703884Y-23032419D02*
X132703884Y-22032419D01*
X132703884Y-22032419D02*
X133084836Y-22032419D01*
X133084836Y-22032419D02*
X133180074Y-22080038D01*
X133180074Y-22080038D02*
X133227693Y-22127657D01*
X133227693Y-22127657D02*
X133275312Y-22222895D01*
X133275312Y-22222895D02*
X133275312Y-22365752D01*
X133275312Y-22365752D02*
X133227693Y-22460990D01*
X133227693Y-22460990D02*
X133180074Y-22508609D01*
X133180074Y-22508609D02*
X133084836Y-22556228D01*
X133084836Y-22556228D02*
X132703884Y-22556228D01*
X134084836Y-22984800D02*
X133989598Y-23032419D01*
X133989598Y-23032419D02*
X133799122Y-23032419D01*
X133799122Y-23032419D02*
X133703884Y-22984800D01*
X133703884Y-22984800D02*
X133656265Y-22889561D01*
X133656265Y-22889561D02*
X133656265Y-22508609D01*
X133656265Y-22508609D02*
X133703884Y-22413371D01*
X133703884Y-22413371D02*
X133799122Y-22365752D01*
X133799122Y-22365752D02*
X133989598Y-22365752D01*
X133989598Y-22365752D02*
X134084836Y-22413371D01*
X134084836Y-22413371D02*
X134132455Y-22508609D01*
X134132455Y-22508609D02*
X134132455Y-22603847D01*
X134132455Y-22603847D02*
X133656265Y-22699085D01*
X134989598Y-23032419D02*
X134989598Y-22032419D01*
X134989598Y-22984800D02*
X134894360Y-23032419D01*
X134894360Y-23032419D02*
X134703884Y-23032419D01*
X134703884Y-23032419D02*
X134608646Y-22984800D01*
X134608646Y-22984800D02*
X134561027Y-22937180D01*
X134561027Y-22937180D02*
X134513408Y-22841942D01*
X134513408Y-22841942D02*
X134513408Y-22556228D01*
X134513408Y-22556228D02*
X134561027Y-22460990D01*
X134561027Y-22460990D02*
X134608646Y-22413371D01*
X134608646Y-22413371D02*
X134703884Y-22365752D01*
X134703884Y-22365752D02*
X134894360Y-22365752D01*
X134894360Y-22365752D02*
X134989598Y-22413371D01*
X137180075Y-22032419D02*
X137370551Y-22032419D01*
X137370551Y-22032419D02*
X137465789Y-22080038D01*
X137465789Y-22080038D02*
X137561027Y-22175276D01*
X137561027Y-22175276D02*
X137608646Y-22365752D01*
X137608646Y-22365752D02*
X137608646Y-22699085D01*
X137608646Y-22699085D02*
X137561027Y-22889561D01*
X137561027Y-22889561D02*
X137465789Y-22984800D01*
X137465789Y-22984800D02*
X137370551Y-23032419D01*
X137370551Y-23032419D02*
X137180075Y-23032419D01*
X137180075Y-23032419D02*
X137084837Y-22984800D01*
X137084837Y-22984800D02*
X136989599Y-22889561D01*
X136989599Y-22889561D02*
X136941980Y-22699085D01*
X136941980Y-22699085D02*
X136941980Y-22365752D01*
X136941980Y-22365752D02*
X136989599Y-22175276D01*
X136989599Y-22175276D02*
X137084837Y-22080038D01*
X137084837Y-22080038D02*
X137180075Y-22032419D01*
X138037218Y-23032419D02*
X138037218Y-22365752D01*
X138037218Y-22556228D02*
X138084837Y-22460990D01*
X138084837Y-22460990D02*
X138132456Y-22413371D01*
X138132456Y-22413371D02*
X138227694Y-22365752D01*
X138227694Y-22365752D02*
X138322932Y-22365752D01*
X139084837Y-23032419D02*
X139084837Y-22508609D01*
X139084837Y-22508609D02*
X139037218Y-22413371D01*
X139037218Y-22413371D02*
X138941980Y-22365752D01*
X138941980Y-22365752D02*
X138751504Y-22365752D01*
X138751504Y-22365752D02*
X138656266Y-22413371D01*
X139084837Y-22984800D02*
X138989599Y-23032419D01*
X138989599Y-23032419D02*
X138751504Y-23032419D01*
X138751504Y-23032419D02*
X138656266Y-22984800D01*
X138656266Y-22984800D02*
X138608647Y-22889561D01*
X138608647Y-22889561D02*
X138608647Y-22794323D01*
X138608647Y-22794323D02*
X138656266Y-22699085D01*
X138656266Y-22699085D02*
X138751504Y-22651466D01*
X138751504Y-22651466D02*
X138989599Y-22651466D01*
X138989599Y-22651466D02*
X139084837Y-22603847D01*
X139561028Y-22365752D02*
X139561028Y-23032419D01*
X139561028Y-22460990D02*
X139608647Y-22413371D01*
X139608647Y-22413371D02*
X139703885Y-22365752D01*
X139703885Y-22365752D02*
X139846742Y-22365752D01*
X139846742Y-22365752D02*
X139941980Y-22413371D01*
X139941980Y-22413371D02*
X139989599Y-22508609D01*
X139989599Y-22508609D02*
X139989599Y-23032419D01*
X140894361Y-22365752D02*
X140894361Y-23175276D01*
X140894361Y-23175276D02*
X140846742Y-23270514D01*
X140846742Y-23270514D02*
X140799123Y-23318133D01*
X140799123Y-23318133D02*
X140703885Y-23365752D01*
X140703885Y-23365752D02*
X140561028Y-23365752D01*
X140561028Y-23365752D02*
X140465790Y-23318133D01*
X140894361Y-22984800D02*
X140799123Y-23032419D01*
X140799123Y-23032419D02*
X140608647Y-23032419D01*
X140608647Y-23032419D02*
X140513409Y-22984800D01*
X140513409Y-22984800D02*
X140465790Y-22937180D01*
X140465790Y-22937180D02*
X140418171Y-22841942D01*
X140418171Y-22841942D02*
X140418171Y-22556228D01*
X140418171Y-22556228D02*
X140465790Y-22460990D01*
X140465790Y-22460990D02*
X140513409Y-22413371D01*
X140513409Y-22413371D02*
X140608647Y-22365752D01*
X140608647Y-22365752D02*
X140799123Y-22365752D01*
X140799123Y-22365752D02*
X140894361Y-22413371D01*
X141751504Y-22984800D02*
X141656266Y-23032419D01*
X141656266Y-23032419D02*
X141465790Y-23032419D01*
X141465790Y-23032419D02*
X141370552Y-22984800D01*
X141370552Y-22984800D02*
X141322933Y-22889561D01*
X141322933Y-22889561D02*
X141322933Y-22508609D01*
X141322933Y-22508609D02*
X141370552Y-22413371D01*
X141370552Y-22413371D02*
X141465790Y-22365752D01*
X141465790Y-22365752D02*
X141656266Y-22365752D01*
X141656266Y-22365752D02*
X141751504Y-22413371D01*
X141751504Y-22413371D02*
X141799123Y-22508609D01*
X141799123Y-22508609D02*
X141799123Y-22603847D01*
X141799123Y-22603847D02*
X141322933Y-22699085D01*
X143513409Y-22080038D02*
X143418171Y-22032419D01*
X143418171Y-22032419D02*
X143275314Y-22032419D01*
X143275314Y-22032419D02*
X143132457Y-22080038D01*
X143132457Y-22080038D02*
X143037219Y-22175276D01*
X143037219Y-22175276D02*
X142989600Y-22270514D01*
X142989600Y-22270514D02*
X142941981Y-22460990D01*
X142941981Y-22460990D02*
X142941981Y-22603847D01*
X142941981Y-22603847D02*
X142989600Y-22794323D01*
X142989600Y-22794323D02*
X143037219Y-22889561D01*
X143037219Y-22889561D02*
X143132457Y-22984800D01*
X143132457Y-22984800D02*
X143275314Y-23032419D01*
X143275314Y-23032419D02*
X143370552Y-23032419D01*
X143370552Y-23032419D02*
X143513409Y-22984800D01*
X143513409Y-22984800D02*
X143561028Y-22937180D01*
X143561028Y-22937180D02*
X143561028Y-22603847D01*
X143561028Y-22603847D02*
X143370552Y-22603847D01*
X143989600Y-23032419D02*
X143989600Y-22365752D01*
X143989600Y-22556228D02*
X144037219Y-22460990D01*
X144037219Y-22460990D02*
X144084838Y-22413371D01*
X144084838Y-22413371D02*
X144180076Y-22365752D01*
X144180076Y-22365752D02*
X144275314Y-22365752D01*
X144989600Y-22984800D02*
X144894362Y-23032419D01*
X144894362Y-23032419D02*
X144703886Y-23032419D01*
X144703886Y-23032419D02*
X144608648Y-22984800D01*
X144608648Y-22984800D02*
X144561029Y-22889561D01*
X144561029Y-22889561D02*
X144561029Y-22508609D01*
X144561029Y-22508609D02*
X144608648Y-22413371D01*
X144608648Y-22413371D02*
X144703886Y-22365752D01*
X144703886Y-22365752D02*
X144894362Y-22365752D01*
X144894362Y-22365752D02*
X144989600Y-22413371D01*
X144989600Y-22413371D02*
X145037219Y-22508609D01*
X145037219Y-22508609D02*
X145037219Y-22603847D01*
X145037219Y-22603847D02*
X144561029Y-22699085D01*
X145846743Y-22984800D02*
X145751505Y-23032419D01*
X145751505Y-23032419D02*
X145561029Y-23032419D01*
X145561029Y-23032419D02*
X145465791Y-22984800D01*
X145465791Y-22984800D02*
X145418172Y-22889561D01*
X145418172Y-22889561D02*
X145418172Y-22508609D01*
X145418172Y-22508609D02*
X145465791Y-22413371D01*
X145465791Y-22413371D02*
X145561029Y-22365752D01*
X145561029Y-22365752D02*
X145751505Y-22365752D01*
X145751505Y-22365752D02*
X145846743Y-22413371D01*
X145846743Y-22413371D02*
X145894362Y-22508609D01*
X145894362Y-22508609D02*
X145894362Y-22603847D01*
X145894362Y-22603847D02*
X145418172Y-22699085D01*
X146322934Y-22365752D02*
X146322934Y-23032419D01*
X146322934Y-22460990D02*
X146370553Y-22413371D01*
X146370553Y-22413371D02*
X146465791Y-22365752D01*
X146465791Y-22365752D02*
X146608648Y-22365752D01*
X146608648Y-22365752D02*
X146703886Y-22413371D01*
X146703886Y-22413371D02*
X146751505Y-22508609D01*
X146751505Y-22508609D02*
X146751505Y-23032419D01*
X28162419Y-78774687D02*
X27686228Y-79108020D01*
X28162419Y-79346115D02*
X27162419Y-79346115D01*
X27162419Y-79346115D02*
X27162419Y-78965163D01*
X27162419Y-78965163D02*
X27210038Y-78869925D01*
X27210038Y-78869925D02*
X27257657Y-78822306D01*
X27257657Y-78822306D02*
X27352895Y-78774687D01*
X27352895Y-78774687D02*
X27495752Y-78774687D01*
X27495752Y-78774687D02*
X27590990Y-78822306D01*
X27590990Y-78822306D02*
X27638609Y-78869925D01*
X27638609Y-78869925D02*
X27686228Y-78965163D01*
X27686228Y-78965163D02*
X27686228Y-79346115D01*
X28114800Y-77965163D02*
X28162419Y-78060401D01*
X28162419Y-78060401D02*
X28162419Y-78250877D01*
X28162419Y-78250877D02*
X28114800Y-78346115D01*
X28114800Y-78346115D02*
X28019561Y-78393734D01*
X28019561Y-78393734D02*
X27638609Y-78393734D01*
X27638609Y-78393734D02*
X27543371Y-78346115D01*
X27543371Y-78346115D02*
X27495752Y-78250877D01*
X27495752Y-78250877D02*
X27495752Y-78060401D01*
X27495752Y-78060401D02*
X27543371Y-77965163D01*
X27543371Y-77965163D02*
X27638609Y-77917544D01*
X27638609Y-77917544D02*
X27733847Y-77917544D01*
X27733847Y-77917544D02*
X27829085Y-78393734D01*
X28162419Y-77060401D02*
X27162419Y-77060401D01*
X28114800Y-77060401D02*
X28162419Y-77155639D01*
X28162419Y-77155639D02*
X28162419Y-77346115D01*
X28162419Y-77346115D02*
X28114800Y-77441353D01*
X28114800Y-77441353D02*
X28067180Y-77488972D01*
X28067180Y-77488972D02*
X27971942Y-77536591D01*
X27971942Y-77536591D02*
X27686228Y-77536591D01*
X27686228Y-77536591D02*
X27590990Y-77488972D01*
X27590990Y-77488972D02*
X27543371Y-77441353D01*
X27543371Y-77441353D02*
X27495752Y-77346115D01*
X27495752Y-77346115D02*
X27495752Y-77155639D01*
X27495752Y-77155639D02*
X27543371Y-77060401D01*
X27162419Y-74869924D02*
X27162419Y-74679448D01*
X27162419Y-74679448D02*
X27210038Y-74584210D01*
X27210038Y-74584210D02*
X27305276Y-74488972D01*
X27305276Y-74488972D02*
X27495752Y-74441353D01*
X27495752Y-74441353D02*
X27829085Y-74441353D01*
X27829085Y-74441353D02*
X28019561Y-74488972D01*
X28019561Y-74488972D02*
X28114800Y-74584210D01*
X28114800Y-74584210D02*
X28162419Y-74679448D01*
X28162419Y-74679448D02*
X28162419Y-74869924D01*
X28162419Y-74869924D02*
X28114800Y-74965162D01*
X28114800Y-74965162D02*
X28019561Y-75060400D01*
X28019561Y-75060400D02*
X27829085Y-75108019D01*
X27829085Y-75108019D02*
X27495752Y-75108019D01*
X27495752Y-75108019D02*
X27305276Y-75060400D01*
X27305276Y-75060400D02*
X27210038Y-74965162D01*
X27210038Y-74965162D02*
X27162419Y-74869924D01*
X28162419Y-74012781D02*
X27495752Y-74012781D01*
X27686228Y-74012781D02*
X27590990Y-73965162D01*
X27590990Y-73965162D02*
X27543371Y-73917543D01*
X27543371Y-73917543D02*
X27495752Y-73822305D01*
X27495752Y-73822305D02*
X27495752Y-73727067D01*
X28162419Y-72965162D02*
X27638609Y-72965162D01*
X27638609Y-72965162D02*
X27543371Y-73012781D01*
X27543371Y-73012781D02*
X27495752Y-73108019D01*
X27495752Y-73108019D02*
X27495752Y-73298495D01*
X27495752Y-73298495D02*
X27543371Y-73393733D01*
X28114800Y-72965162D02*
X28162419Y-73060400D01*
X28162419Y-73060400D02*
X28162419Y-73298495D01*
X28162419Y-73298495D02*
X28114800Y-73393733D01*
X28114800Y-73393733D02*
X28019561Y-73441352D01*
X28019561Y-73441352D02*
X27924323Y-73441352D01*
X27924323Y-73441352D02*
X27829085Y-73393733D01*
X27829085Y-73393733D02*
X27781466Y-73298495D01*
X27781466Y-73298495D02*
X27781466Y-73060400D01*
X27781466Y-73060400D02*
X27733847Y-72965162D01*
X27495752Y-72488971D02*
X28162419Y-72488971D01*
X27590990Y-72488971D02*
X27543371Y-72441352D01*
X27543371Y-72441352D02*
X27495752Y-72346114D01*
X27495752Y-72346114D02*
X27495752Y-72203257D01*
X27495752Y-72203257D02*
X27543371Y-72108019D01*
X27543371Y-72108019D02*
X27638609Y-72060400D01*
X27638609Y-72060400D02*
X28162419Y-72060400D01*
X27495752Y-71155638D02*
X28305276Y-71155638D01*
X28305276Y-71155638D02*
X28400514Y-71203257D01*
X28400514Y-71203257D02*
X28448133Y-71250876D01*
X28448133Y-71250876D02*
X28495752Y-71346114D01*
X28495752Y-71346114D02*
X28495752Y-71488971D01*
X28495752Y-71488971D02*
X28448133Y-71584209D01*
X28114800Y-71155638D02*
X28162419Y-71250876D01*
X28162419Y-71250876D02*
X28162419Y-71441352D01*
X28162419Y-71441352D02*
X28114800Y-71536590D01*
X28114800Y-71536590D02*
X28067180Y-71584209D01*
X28067180Y-71584209D02*
X27971942Y-71631828D01*
X27971942Y-71631828D02*
X27686228Y-71631828D01*
X27686228Y-71631828D02*
X27590990Y-71584209D01*
X27590990Y-71584209D02*
X27543371Y-71536590D01*
X27543371Y-71536590D02*
X27495752Y-71441352D01*
X27495752Y-71441352D02*
X27495752Y-71250876D01*
X27495752Y-71250876D02*
X27543371Y-71155638D01*
X28114800Y-70298495D02*
X28162419Y-70393733D01*
X28162419Y-70393733D02*
X28162419Y-70584209D01*
X28162419Y-70584209D02*
X28114800Y-70679447D01*
X28114800Y-70679447D02*
X28019561Y-70727066D01*
X28019561Y-70727066D02*
X27638609Y-70727066D01*
X27638609Y-70727066D02*
X27543371Y-70679447D01*
X27543371Y-70679447D02*
X27495752Y-70584209D01*
X27495752Y-70584209D02*
X27495752Y-70393733D01*
X27495752Y-70393733D02*
X27543371Y-70298495D01*
X27543371Y-70298495D02*
X27638609Y-70250876D01*
X27638609Y-70250876D02*
X27733847Y-70250876D01*
X27733847Y-70250876D02*
X27829085Y-70727066D01*
X27210038Y-68536590D02*
X27162419Y-68631828D01*
X27162419Y-68631828D02*
X27162419Y-68774685D01*
X27162419Y-68774685D02*
X27210038Y-68917542D01*
X27210038Y-68917542D02*
X27305276Y-69012780D01*
X27305276Y-69012780D02*
X27400514Y-69060399D01*
X27400514Y-69060399D02*
X27590990Y-69108018D01*
X27590990Y-69108018D02*
X27733847Y-69108018D01*
X27733847Y-69108018D02*
X27924323Y-69060399D01*
X27924323Y-69060399D02*
X28019561Y-69012780D01*
X28019561Y-69012780D02*
X28114800Y-68917542D01*
X28114800Y-68917542D02*
X28162419Y-68774685D01*
X28162419Y-68774685D02*
X28162419Y-68679447D01*
X28162419Y-68679447D02*
X28114800Y-68536590D01*
X28114800Y-68536590D02*
X28067180Y-68488971D01*
X28067180Y-68488971D02*
X27733847Y-68488971D01*
X27733847Y-68488971D02*
X27733847Y-68679447D01*
X28162419Y-68060399D02*
X27495752Y-68060399D01*
X27686228Y-68060399D02*
X27590990Y-68012780D01*
X27590990Y-68012780D02*
X27543371Y-67965161D01*
X27543371Y-67965161D02*
X27495752Y-67869923D01*
X27495752Y-67869923D02*
X27495752Y-67774685D01*
X28114800Y-67060399D02*
X28162419Y-67155637D01*
X28162419Y-67155637D02*
X28162419Y-67346113D01*
X28162419Y-67346113D02*
X28114800Y-67441351D01*
X28114800Y-67441351D02*
X28019561Y-67488970D01*
X28019561Y-67488970D02*
X27638609Y-67488970D01*
X27638609Y-67488970D02*
X27543371Y-67441351D01*
X27543371Y-67441351D02*
X27495752Y-67346113D01*
X27495752Y-67346113D02*
X27495752Y-67155637D01*
X27495752Y-67155637D02*
X27543371Y-67060399D01*
X27543371Y-67060399D02*
X27638609Y-67012780D01*
X27638609Y-67012780D02*
X27733847Y-67012780D01*
X27733847Y-67012780D02*
X27829085Y-67488970D01*
X28114800Y-66203256D02*
X28162419Y-66298494D01*
X28162419Y-66298494D02*
X28162419Y-66488970D01*
X28162419Y-66488970D02*
X28114800Y-66584208D01*
X28114800Y-66584208D02*
X28019561Y-66631827D01*
X28019561Y-66631827D02*
X27638609Y-66631827D01*
X27638609Y-66631827D02*
X27543371Y-66584208D01*
X27543371Y-66584208D02*
X27495752Y-66488970D01*
X27495752Y-66488970D02*
X27495752Y-66298494D01*
X27495752Y-66298494D02*
X27543371Y-66203256D01*
X27543371Y-66203256D02*
X27638609Y-66155637D01*
X27638609Y-66155637D02*
X27733847Y-66155637D01*
X27733847Y-66155637D02*
X27829085Y-66631827D01*
X27495752Y-65727065D02*
X28162419Y-65727065D01*
X27590990Y-65727065D02*
X27543371Y-65679446D01*
X27543371Y-65679446D02*
X27495752Y-65584208D01*
X27495752Y-65584208D02*
X27495752Y-65441351D01*
X27495752Y-65441351D02*
X27543371Y-65346113D01*
X27543371Y-65346113D02*
X27638609Y-65298494D01*
X27638609Y-65298494D02*
X28162419Y-65298494D01*
G36*
X103342257Y-79001820D02*
G01*
X103490863Y-79099192D01*
X103555454Y-79246963D01*
X103568006Y-79455089D01*
X103578556Y-79678295D01*
X103638532Y-79787975D01*
X103792121Y-79839853D01*
X103886167Y-79856323D01*
X104244589Y-79907500D01*
X104472215Y-79909030D01*
X104603380Y-79848743D01*
X104672421Y-79714472D01*
X104702648Y-79566983D01*
X104757521Y-79340293D01*
X104838065Y-79250126D01*
X104903970Y-79247370D01*
X105096910Y-79229461D01*
X105165633Y-79199206D01*
X105295598Y-79176906D01*
X105334966Y-79207495D01*
X105454201Y-79302763D01*
X105546422Y-79346236D01*
X105626861Y-79391815D01*
X105663866Y-79476459D01*
X105658645Y-79635813D01*
X105612403Y-79905523D01*
X105572055Y-80103580D01*
X105637268Y-80165713D01*
X105821617Y-80266336D01*
X106085821Y-80384120D01*
X106097421Y-80388857D01*
X106425206Y-80507025D01*
X106631749Y-80534662D01*
X106742433Y-80465945D01*
X106782642Y-80295047D01*
X106784704Y-80231145D01*
X106853599Y-80078791D01*
X106955334Y-79995333D01*
X107091682Y-79947383D01*
X107124667Y-79995333D01*
X107171420Y-80043283D01*
X107294000Y-79995333D01*
X107424029Y-79948185D01*
X107462817Y-80016436D01*
X107463334Y-80037345D01*
X107531879Y-80181303D01*
X107590334Y-80218715D01*
X107702701Y-80338214D01*
X107682818Y-80553007D01*
X107564337Y-80799667D01*
X107411973Y-81053667D01*
X107937529Y-81451632D01*
X108201324Y-81648997D01*
X108360961Y-81754124D01*
X108447045Y-81777308D01*
X108490182Y-81728840D01*
X108514286Y-81645599D01*
X108582139Y-81502883D01*
X108723882Y-81456864D01*
X108839319Y-81459300D01*
X109150541Y-81540373D01*
X109339969Y-81715924D01*
X109393002Y-81955665D01*
X109295037Y-82229308D01*
X109244704Y-82300152D01*
X109078741Y-82511140D01*
X109327231Y-82849034D01*
X109491728Y-83053132D01*
X109635243Y-83150221D01*
X109827572Y-83176236D01*
X109958406Y-83174007D01*
X110211375Y-83181127D01*
X110343102Y-83234439D01*
X110389584Y-83313876D01*
X110468649Y-83441758D01*
X110522744Y-83466667D01*
X110570779Y-83527953D01*
X110539786Y-83678390D01*
X110447038Y-83867840D01*
X110330716Y-84024110D01*
X110233924Y-84147507D01*
X110214998Y-84263838D01*
X110270907Y-84441435D01*
X110308177Y-84532110D01*
X110416493Y-84795535D01*
X110508923Y-85027363D01*
X110523549Y-85065341D01*
X110591336Y-85203535D01*
X110671332Y-85196980D01*
X110752986Y-85128841D01*
X110921627Y-85024849D01*
X111083987Y-84993015D01*
X111181034Y-85040587D01*
X111188667Y-85075333D01*
X111257893Y-85148863D01*
X111325542Y-85160000D01*
X111424131Y-85211893D01*
X111418157Y-85329249D01*
X111414445Y-85486768D01*
X111450844Y-85546054D01*
X111490952Y-85646544D01*
X111411912Y-85786397D01*
X111245093Y-85927395D01*
X111064045Y-86017335D01*
X110865073Y-86113555D01*
X110799627Y-86226706D01*
X110805479Y-86297961D01*
X110837713Y-86487185D01*
X110877285Y-86758018D01*
X110892437Y-86871421D01*
X110930536Y-87111718D01*
X110986555Y-87226098D01*
X111096394Y-87257022D01*
X111214560Y-87252421D01*
X111399506Y-87258946D01*
X111484407Y-87299219D01*
X111485000Y-87303789D01*
X111549666Y-87397202D01*
X111633655Y-87456436D01*
X111738309Y-87576728D01*
X111729334Y-87767980D01*
X111599044Y-88039868D01*
X111361011Y-88182474D01*
X111147561Y-88208000D01*
X111005785Y-88215717D01*
X110919896Y-88264040D01*
X110866179Y-88390724D01*
X110820918Y-88633525D01*
X110801869Y-88758333D01*
X110762693Y-89063318D01*
X110761480Y-89234361D01*
X110799775Y-89302890D01*
X110828888Y-89308667D01*
X110937449Y-89379157D01*
X111019334Y-89520333D01*
X111112289Y-89677548D01*
X111199694Y-89732000D01*
X111233437Y-89779894D01*
X111159271Y-89887037D01*
X111074442Y-90025567D01*
X111080197Y-90103308D01*
X111083363Y-90187579D01*
X110961266Y-90265507D01*
X110757293Y-90315542D01*
X110637160Y-90323370D01*
X110493827Y-90339490D01*
X110384626Y-90408908D01*
X110277159Y-90565823D01*
X110139029Y-90844432D01*
X110134632Y-90853833D01*
X110007116Y-91124738D01*
X109908668Y-91330384D01*
X109860206Y-91427087D01*
X109859868Y-91427647D01*
X109910322Y-91483773D01*
X110069947Y-91561694D01*
X110094409Y-91571169D01*
X110273267Y-91664373D01*
X110316657Y-91777184D01*
X110303402Y-91836897D01*
X110294895Y-91993571D01*
X110333041Y-92054796D01*
X110337487Y-92142588D01*
X110239646Y-92294354D01*
X110211138Y-92326502D01*
X110078720Y-92457214D01*
X109964192Y-92503858D01*
X109801311Y-92477267D01*
X109626700Y-92422080D01*
X109246761Y-92296999D01*
X108914891Y-92690577D01*
X108583021Y-93084155D01*
X108827511Y-93224473D01*
X108982288Y-93351615D01*
X109068266Y-93491896D01*
X109065705Y-93597992D01*
X108995260Y-93626667D01*
X108951708Y-93694093D01*
X108962801Y-93796000D01*
X108959742Y-93929284D01*
X108828465Y-93965333D01*
X108827875Y-93965333D01*
X108685020Y-93999030D01*
X108648667Y-94050000D01*
X108594157Y-94131711D01*
X108450550Y-94102842D01*
X108247726Y-93973299D01*
X108142152Y-93882054D01*
X107871730Y-93629442D01*
X107604032Y-93827792D01*
X107374753Y-93982814D01*
X107077443Y-94165020D01*
X106891920Y-94270904D01*
X106624640Y-94442685D01*
X106472192Y-94594231D01*
X106447420Y-94661881D01*
X106381843Y-94812648D01*
X106246671Y-94939575D01*
X106121535Y-95053411D01*
X106058558Y-95219061D01*
X106036502Y-95493723D01*
X106036202Y-95506376D01*
X106032251Y-95652093D01*
X106037524Y-95770300D01*
X106066488Y-95880718D01*
X106133609Y-96003071D01*
X106253353Y-96157081D01*
X106440186Y-96362471D01*
X106708574Y-96638963D01*
X107072983Y-97006280D01*
X107314204Y-97248758D01*
X107532255Y-97571778D01*
X107689929Y-98028390D01*
X107779411Y-98591214D01*
X107796779Y-98939500D01*
X107802000Y-99299333D01*
X105791167Y-99280979D01*
X105089288Y-99273258D01*
X104277884Y-99262179D01*
X103416708Y-99248694D01*
X102565511Y-99233755D01*
X101784047Y-99218314D01*
X101579000Y-99213878D01*
X100987116Y-99200141D01*
X100453813Y-99186557D01*
X100001598Y-99173797D01*
X99652982Y-99162533D01*
X99430473Y-99153437D01*
X99356500Y-99147565D01*
X99343001Y-99060453D01*
X99335736Y-98865760D01*
X99335334Y-98801719D01*
X99358668Y-98484256D01*
X99420462Y-98112906D01*
X99508406Y-97736578D01*
X99610185Y-97404183D01*
X99713489Y-97164631D01*
X99766067Y-97090600D01*
X99887851Y-96909078D01*
X99993572Y-96655860D01*
X100009503Y-96601748D01*
X100109937Y-96355332D01*
X100286015Y-96169583D01*
X100469717Y-96049193D01*
X100692164Y-95902516D01*
X100846193Y-95770692D01*
X100882812Y-95719603D01*
X100888453Y-95575923D01*
X100853953Y-95337985D01*
X100822605Y-95198992D01*
X100755263Y-94970563D01*
X100668137Y-94824788D01*
X100516303Y-94715247D01*
X100254841Y-94595520D01*
X100227395Y-94583923D01*
X99892253Y-94427641D01*
X99504702Y-94225213D01*
X99182988Y-94040788D01*
X98630265Y-93704998D01*
X98364935Y-93962165D01*
X98145722Y-94143584D01*
X97983447Y-94217075D01*
X97901464Y-94174047D01*
X97896000Y-94134667D01*
X97824874Y-94066541D01*
X97721670Y-94050000D01*
X97603668Y-94016537D01*
X97601959Y-93961624D01*
X97601787Y-93830143D01*
X97558747Y-93755370D01*
X97514860Y-93582603D01*
X97607355Y-93372100D01*
X97762770Y-93208504D01*
X97811022Y-93142998D01*
X97799195Y-93050208D01*
X97712841Y-92902786D01*
X97537510Y-92673386D01*
X97375003Y-92474634D01*
X97144549Y-92205206D01*
X96949397Y-91993940D01*
X96816908Y-91869609D01*
X96779740Y-91848667D01*
X96657283Y-91884619D01*
X96463785Y-91972079D01*
X96446079Y-91981142D01*
X96263606Y-92061919D01*
X96145753Y-92045594D01*
X96010525Y-91919789D01*
X96005783Y-91914670D01*
X95868009Y-91695309D01*
X95808968Y-91478003D01*
X95831367Y-91299493D01*
X95952326Y-91182396D01*
X96077270Y-91122874D01*
X96358271Y-91005464D01*
X96140818Y-90457384D01*
X95923364Y-89909305D01*
X95491515Y-89884152D01*
X95228927Y-89857387D01*
X95097456Y-89806433D01*
X95059107Y-89715758D01*
X95058927Y-89707288D01*
X95003309Y-89541717D01*
X94949086Y-89488147D01*
X94888704Y-89411734D01*
X94970993Y-89311993D01*
X95080793Y-89167659D01*
X95102000Y-89086633D01*
X95181030Y-88998333D01*
X95407392Y-88970000D01*
X95607739Y-88955287D01*
X95673642Y-88899464D01*
X95661392Y-88836075D01*
X95627590Y-88666012D01*
X95610507Y-88419614D01*
X95610000Y-88372022D01*
X95594111Y-88150742D01*
X95525795Y-88042697D01*
X95398334Y-87997946D01*
X95137926Y-87943793D01*
X94970157Y-87908838D01*
X94801578Y-87825308D01*
X94777544Y-87718338D01*
X94763919Y-87533880D01*
X94736966Y-87470255D01*
X94732768Y-87330834D01*
X94824338Y-87215335D01*
X96264206Y-87215335D01*
X96308118Y-88075724D01*
X96442204Y-89078923D01*
X96733593Y-90045036D01*
X97171624Y-90958478D01*
X97745637Y-91803665D01*
X98444973Y-92565013D01*
X99258970Y-93226938D01*
X100176970Y-93773856D01*
X100220790Y-93795630D01*
X100590806Y-93970918D01*
X100824346Y-94063020D01*
X100931245Y-94073992D01*
X100921339Y-94005892D01*
X100865523Y-93930458D01*
X100807133Y-93772365D01*
X100853368Y-93637813D01*
X101035658Y-93450186D01*
X101281574Y-93383420D01*
X101539844Y-93433992D01*
X101759194Y-93598378D01*
X101829679Y-93704910D01*
X101989363Y-93930146D01*
X102149513Y-93987028D01*
X102282792Y-93908637D01*
X102441494Y-93830583D01*
X102671221Y-93796088D01*
X102682736Y-93796000D01*
X102937735Y-93751353D01*
X103074837Y-93608824D01*
X103099678Y-93355533D01*
X103026936Y-93009166D01*
X102908243Y-92689662D01*
X102754809Y-92386193D01*
X102683328Y-92276717D01*
X102548990Y-92069486D01*
X102473793Y-91904382D01*
X102468000Y-91870059D01*
X102423108Y-91733359D01*
X102310368Y-91526862D01*
X102256334Y-91443521D01*
X102106773Y-91145794D01*
X102098068Y-91104879D01*
X103060667Y-91104879D01*
X103119600Y-91270321D01*
X103262037Y-91450635D01*
X103268365Y-91456574D01*
X103421535Y-91664647D01*
X103428991Y-91829067D01*
X103435088Y-92048369D01*
X103528041Y-92383789D01*
X103699619Y-92811330D01*
X103925061Y-93275431D01*
X104052517Y-93542986D01*
X104138302Y-93767359D01*
X104161334Y-93873984D01*
X104232417Y-93995792D01*
X104407115Y-94131408D01*
X104627598Y-94243556D01*
X104811363Y-94292994D01*
X104932785Y-94271243D01*
X105169092Y-94203718D01*
X105476339Y-94103351D01*
X105587374Y-94064671D01*
X106555397Y-93633881D01*
X107440627Y-93061228D01*
X108228509Y-92359826D01*
X108904485Y-91542790D01*
X109453998Y-90623232D01*
X109490824Y-90548188D01*
X109689562Y-90130845D01*
X109816572Y-89838045D01*
X109876410Y-89643156D01*
X109873634Y-89519544D01*
X109812803Y-89440577D01*
X109698472Y-89379623D01*
X109691321Y-89376522D01*
X109471117Y-89264464D01*
X109204592Y-89106756D01*
X109114334Y-89048426D01*
X108527409Y-88703174D01*
X107815243Y-88359472D01*
X107020858Y-88037876D01*
X106927953Y-88003881D01*
X106512200Y-87845125D01*
X106085653Y-87668710D01*
X105721023Y-87505105D01*
X105678482Y-87484326D01*
X107238249Y-87484326D01*
X107300054Y-87574865D01*
X107343431Y-87623175D01*
X107462481Y-87742584D01*
X107595720Y-87838917D01*
X107775563Y-87926280D01*
X108034423Y-88018781D01*
X108404714Y-88130524D01*
X108705589Y-88215969D01*
X109095643Y-88330369D01*
X109445252Y-88441708D01*
X109709371Y-88535155D01*
X109822750Y-88583781D01*
X110010151Y-88646212D01*
X110119742Y-88581001D01*
X110166679Y-88373055D01*
X110171370Y-88236609D01*
X110157912Y-88066304D01*
X110084379Y-87977111D01*
X109904302Y-87926904D01*
X109812834Y-87911594D01*
X109570474Y-87865453D01*
X109222430Y-87789800D01*
X108826948Y-87697547D01*
X108633324Y-87650152D01*
X108243663Y-87561029D01*
X107879651Y-87491626D01*
X107595952Y-87451777D01*
X107498368Y-87446000D01*
X107296069Y-87450844D01*
X107238249Y-87484326D01*
X105678482Y-87484326D01*
X105620147Y-87455833D01*
X105269032Y-87297132D01*
X104991186Y-87208031D01*
X104811424Y-87194351D01*
X104754000Y-87252592D01*
X104809104Y-87339766D01*
X104952962Y-87507696D01*
X105136636Y-87701661D01*
X105348778Y-87930200D01*
X105470294Y-88118096D01*
X105533820Y-88336053D01*
X105570836Y-88642330D01*
X105587374Y-89075645D01*
X105540201Y-89355754D01*
X105427402Y-89487104D01*
X105247065Y-89474143D01*
X105218173Y-89461914D01*
X105107756Y-89425381D01*
X105000600Y-89440273D01*
X104863822Y-89525186D01*
X104664540Y-89698716D01*
X104465115Y-89887798D01*
X104212079Y-90120896D01*
X103997819Y-90300233D01*
X103855662Y-90398653D01*
X103825030Y-90409333D01*
X103675971Y-90466968D01*
X103476110Y-90610203D01*
X103274352Y-90794538D01*
X103119604Y-90975470D01*
X103060667Y-91104879D01*
X102098068Y-91104879D01*
X102044819Y-90854587D01*
X102044667Y-90842171D01*
X102105654Y-90559122D01*
X102261072Y-90271392D01*
X102469608Y-90041327D01*
X102640815Y-89942562D01*
X102768474Y-89847090D01*
X102765707Y-89736327D01*
X102796285Y-89588335D01*
X102936484Y-89438789D01*
X103133157Y-89332818D01*
X103269355Y-89308667D01*
X103383925Y-89263863D01*
X103399334Y-89224000D01*
X103330271Y-89149692D01*
X103156143Y-89137037D01*
X102926533Y-89178725D01*
X102691029Y-89267443D01*
X102556311Y-89348311D01*
X102338286Y-89475817D01*
X102020180Y-89622319D01*
X101664499Y-89759488D01*
X101602654Y-89780554D01*
X101236765Y-89914066D01*
X101004310Y-90031458D01*
X100872922Y-90151009D01*
X100836976Y-90212926D01*
X100669292Y-90422168D01*
X100414123Y-90589631D01*
X100152538Y-90663059D01*
X100138222Y-90663333D01*
X99987056Y-90712144D01*
X99780929Y-90833499D01*
X99723859Y-90875000D01*
X99488592Y-91033212D01*
X99322000Y-91074898D01*
X99174863Y-91005079D01*
X99101762Y-90938500D01*
X98927949Y-90784526D01*
X98712417Y-90615958D01*
X98703743Y-90609643D01*
X98454630Y-90428952D01*
X98958482Y-90179255D01*
X99326743Y-90005238D01*
X99731175Y-89826596D01*
X99962828Y-89730734D01*
X100306031Y-89571431D01*
X100648678Y-89376365D01*
X100826073Y-89255016D01*
X101120856Y-89049053D01*
X101438739Y-88854413D01*
X101553245Y-88792512D01*
X101841732Y-88630597D01*
X102116676Y-88453177D01*
X102183483Y-88404533D01*
X102402005Y-88289381D01*
X102722487Y-88177883D01*
X103078256Y-88089079D01*
X103402639Y-88042012D01*
X103462834Y-88039157D01*
X103479938Y-87967287D01*
X103484000Y-87865485D01*
X103411987Y-87655221D01*
X103234122Y-87452682D01*
X103007667Y-87311064D01*
X102850191Y-87276667D01*
X102668341Y-87232574D01*
X102583285Y-87149667D01*
X102516118Y-87051265D01*
X102405697Y-87042153D01*
X102227128Y-87130595D01*
X101955520Y-87324852D01*
X101880255Y-87383042D01*
X101337606Y-87833154D01*
X100924407Y-88239153D01*
X100702919Y-88504333D01*
X100558097Y-88659072D01*
X100473694Y-88666384D01*
X100465957Y-88652500D01*
X100355827Y-88568133D01*
X100233460Y-88546667D01*
X100009366Y-88496509D01*
X99888047Y-88431877D01*
X99802949Y-88355379D01*
X99796091Y-88272045D01*
X99878789Y-88136898D01*
X100001646Y-87980382D01*
X100163111Y-87741079D01*
X100227045Y-87558041D01*
X100221396Y-87511209D01*
X100232757Y-87414059D01*
X100365521Y-87323247D01*
X100578448Y-87241567D01*
X100791709Y-87151996D01*
X101069130Y-87011092D01*
X101377916Y-86838805D01*
X101685268Y-86655085D01*
X101958389Y-86479881D01*
X101993551Y-86454846D01*
X104698986Y-86454846D01*
X104831645Y-86529410D01*
X105071500Y-86596665D01*
X105405879Y-86702724D01*
X105755622Y-86848347D01*
X105854667Y-86897812D01*
X106094981Y-87007251D01*
X106285592Y-87062181D01*
X106348425Y-87061369D01*
X106519974Y-87030500D01*
X106665925Y-87022667D01*
X106821696Y-86992794D01*
X106870667Y-86938000D01*
X106803781Y-86859078D01*
X106764834Y-86852971D01*
X106687264Y-86825849D01*
X107063170Y-86825849D01*
X107064763Y-86906318D01*
X107162268Y-86931738D01*
X107391639Y-86966126D01*
X107715986Y-87004502D01*
X108008539Y-87033755D01*
X108425212Y-87075934D01*
X108818702Y-87122010D01*
X109133506Y-87165188D01*
X109265286Y-87187614D01*
X109571005Y-87236245D01*
X109864875Y-87265366D01*
X109909092Y-87267390D01*
X110195850Y-87276667D01*
X110152752Y-86739750D01*
X110104391Y-86378894D01*
X110019245Y-85951236D01*
X109917004Y-85553893D01*
X109724356Y-84904953D01*
X109461678Y-85104356D01*
X109172715Y-85255489D01*
X108820773Y-85345495D01*
X108792141Y-85349008D01*
X108518902Y-85403064D01*
X108300669Y-85487117D01*
X108241808Y-85527564D01*
X108096703Y-85658021D01*
X107881726Y-85846593D01*
X107740349Y-85968950D01*
X107515856Y-86186248D01*
X107310529Y-86425963D01*
X107150817Y-86651397D01*
X107063170Y-86825849D01*
X106687264Y-86825849D01*
X106638188Y-86808690D01*
X106429887Y-86695798D01*
X106287463Y-86606119D01*
X106058930Y-86473699D01*
X105877291Y-86402364D01*
X105812141Y-86399456D01*
X105680329Y-86386695D01*
X105466036Y-86308615D01*
X105354971Y-86255088D01*
X105135720Y-86147505D01*
X105005482Y-86117747D01*
X104904948Y-86161950D01*
X104835460Y-86221235D01*
X104705333Y-86360193D01*
X104698986Y-86454846D01*
X101993551Y-86454846D01*
X102164482Y-86333143D01*
X102270749Y-86234820D01*
X102275515Y-86209292D01*
X102190148Y-86231896D01*
X101980698Y-86321087D01*
X101673080Y-86464874D01*
X101293206Y-86651263D01*
X101002510Y-86798443D01*
X100329065Y-87138319D01*
X99780517Y-87401929D01*
X99335089Y-87597630D01*
X98971005Y-87733778D01*
X98666489Y-87818729D01*
X98399765Y-87860838D01*
X98211763Y-87869333D01*
X97891611Y-87848710D01*
X97642225Y-87766181D01*
X97379537Y-87599008D01*
X97062491Y-87414891D01*
X96729331Y-87291422D01*
X96635603Y-87272009D01*
X96264206Y-87215335D01*
X94824338Y-87215335D01*
X94846232Y-87187720D01*
X95030635Y-87077865D01*
X95239254Y-87038219D01*
X95278709Y-87041809D01*
X95415727Y-87053393D01*
X95505357Y-87018999D01*
X95563636Y-86908025D01*
X95606601Y-86689867D01*
X95650289Y-86333922D01*
X95650461Y-86332404D01*
X95658883Y-86258220D01*
X96377100Y-86258220D01*
X96394809Y-86404147D01*
X96435500Y-86419974D01*
X96607674Y-86423060D01*
X96797014Y-86500844D01*
X97041271Y-86672659D01*
X97223727Y-86823655D01*
X97610203Y-87131185D01*
X97926558Y-87316878D01*
X98211126Y-87388936D01*
X98502245Y-87355564D01*
X98838247Y-87224967D01*
X98917664Y-87186174D01*
X99250045Y-86983716D01*
X99414716Y-86785590D01*
X99412558Y-86580326D01*
X99244456Y-86356452D01*
X98996667Y-86160114D01*
X98617845Y-85885771D01*
X98338515Y-85648668D01*
X98111483Y-85401454D01*
X97889551Y-85096773D01*
X97796929Y-84956373D01*
X97565464Y-84529221D01*
X97478524Y-84180403D01*
X97534868Y-83902076D01*
X97612789Y-83790833D01*
X97831974Y-83644318D01*
X98064402Y-83640187D01*
X98283554Y-83756228D01*
X98462911Y-83970224D01*
X98575954Y-84259964D01*
X98596165Y-84603232D01*
X98595106Y-84613691D01*
X98589668Y-84853151D01*
X98657829Y-85028664D01*
X98827949Y-85219508D01*
X99072665Y-85411543D01*
X99381370Y-85593927D01*
X99518810Y-85657897D01*
X99940538Y-85833159D01*
X99885273Y-85581539D01*
X99874769Y-85376491D01*
X99907065Y-85133039D01*
X99968159Y-84909206D01*
X100044051Y-84763017D01*
X100089141Y-84736667D01*
X100184521Y-84792637D01*
X100333194Y-84929297D01*
X100351334Y-84948333D01*
X100529347Y-85093882D01*
X100691351Y-85159676D01*
X100699958Y-85160000D01*
X100861838Y-85224348D01*
X100969632Y-85331181D01*
X101069802Y-85445924D01*
X101150825Y-85423617D01*
X101199185Y-85370239D01*
X101338035Y-85261513D01*
X101570495Y-85130816D01*
X101719086Y-85061631D01*
X101999062Y-84912938D01*
X102121583Y-84772656D01*
X102129334Y-84726958D01*
X102195635Y-84560232D01*
X102298667Y-84463018D01*
X102451331Y-84323776D01*
X102456141Y-84201231D01*
X102334176Y-84100460D01*
X102106516Y-84026541D01*
X101794242Y-83984552D01*
X101418433Y-83979571D01*
X101000169Y-84016674D01*
X100680390Y-84073199D01*
X100252656Y-84140211D01*
X99884108Y-84150480D01*
X99596990Y-84109469D01*
X99413547Y-84022645D01*
X99356024Y-83895470D01*
X99419598Y-83763485D01*
X99588899Y-83668584D01*
X99772158Y-83681296D01*
X99961130Y-83678340D01*
X100020351Y-83581449D01*
X99933629Y-83422298D01*
X99914655Y-83402521D01*
X99862562Y-83285002D01*
X99925022Y-83173921D01*
X100100878Y-83053211D01*
X100279529Y-83101100D01*
X100354312Y-83173921D01*
X100477763Y-83259849D01*
X100559853Y-83215063D01*
X100576189Y-83077329D01*
X100520667Y-82916333D01*
X100455060Y-82703470D01*
X100520802Y-82589028D01*
X100700412Y-82590664D01*
X100804478Y-82629700D01*
X101008618Y-82692860D01*
X101089237Y-82642143D01*
X101043741Y-82479526D01*
X101031812Y-82456544D01*
X100984424Y-82328972D01*
X101049432Y-82263421D01*
X101192912Y-82227318D01*
X101356381Y-82171423D01*
X101405115Y-82105359D01*
X101402926Y-82101093D01*
X101406189Y-82011472D01*
X101521441Y-81971698D01*
X101697448Y-81986540D01*
X101876668Y-82056987D01*
X102097092Y-82169892D01*
X102215781Y-82165408D01*
X102265587Y-82028905D01*
X102276015Y-81879167D01*
X102298869Y-81469869D01*
X102333984Y-81106073D01*
X102376368Y-80829075D01*
X102420943Y-80680310D01*
X102438626Y-80620229D01*
X102381120Y-80596327D01*
X102226283Y-80610620D01*
X101951975Y-80665123D01*
X101542641Y-80760274D01*
X100554147Y-81082336D01*
X99632268Y-81551860D01*
X98791187Y-82155293D01*
X98045092Y-82879084D01*
X97408166Y-83709683D01*
X96894597Y-84633537D01*
X96551052Y-85528752D01*
X96429363Y-85965024D01*
X96377100Y-86258220D01*
X95658883Y-86258220D01*
X95704793Y-85853807D01*
X95410884Y-85756808D01*
X95212220Y-85657553D01*
X95074930Y-85530042D01*
X95029233Y-85412553D01*
X95088167Y-85348055D01*
X95135483Y-85257139D01*
X95125471Y-85155940D01*
X95133784Y-85019527D01*
X95219125Y-84990666D01*
X95337995Y-84947845D01*
X95356000Y-84906000D01*
X95424021Y-84838932D01*
X95579916Y-84825028D01*
X95751435Y-84862372D01*
X95843055Y-84918921D01*
X95917299Y-84936338D01*
X96007690Y-84832504D01*
X96130428Y-84588003D01*
X96143326Y-84559088D01*
X96346009Y-84101667D01*
X96083838Y-83961618D01*
X95893506Y-83821742D01*
X95820366Y-83633395D01*
X95812994Y-83532256D01*
X95832839Y-83317418D01*
X95940402Y-83191361D01*
X96061190Y-83129241D01*
X96268212Y-83061384D01*
X96438819Y-83091511D01*
X96556857Y-83152591D01*
X96795655Y-83289642D01*
X97149912Y-82820431D01*
X97340656Y-82551399D01*
X97431127Y-82372952D01*
X97436077Y-82251400D01*
X97416970Y-82210444D01*
X97249525Y-81938390D01*
X97159518Y-81774229D01*
X97136746Y-81680969D01*
X97171003Y-81621616D01*
X97239834Y-81568343D01*
X97359359Y-81444962D01*
X97388000Y-81374019D01*
X97462395Y-81321056D01*
X97645901Y-81298291D01*
X97691267Y-81298686D01*
X97940077Y-81344181D01*
X98085970Y-81479700D01*
X98097227Y-81499689D01*
X98199921Y-81691712D01*
X98555961Y-81418071D01*
X98755990Y-81251351D01*
X98885157Y-81118770D01*
X98912000Y-81069778D01*
X98872473Y-80951872D01*
X98776081Y-80764044D01*
X98763834Y-80742943D01*
X98670665Y-80568028D01*
X98668049Y-80471252D01*
X98755984Y-80387668D01*
X98763834Y-80381880D01*
X98883596Y-80257514D01*
X98912000Y-80184966D01*
X98986556Y-80127389D01*
X99170479Y-80097932D01*
X99216191Y-80096933D01*
X99432203Y-80119091D01*
X99557490Y-80218237D01*
X99640087Y-80383426D01*
X99759791Y-80669919D01*
X99928405Y-80588000D01*
X103623816Y-80588000D01*
X103797480Y-80778500D01*
X104005086Y-81113314D01*
X104119202Y-81524207D01*
X104120717Y-81916227D01*
X104070448Y-82239000D01*
X104221997Y-81943774D01*
X104400671Y-81700531D01*
X104598882Y-81615927D01*
X104803991Y-81695151D01*
X104811876Y-81701566D01*
X104987718Y-81796123D01*
X105081591Y-81814390D01*
X105203409Y-81886839D01*
X105244406Y-81985000D01*
X105294889Y-82230859D01*
X105350150Y-82325364D01*
X105425478Y-82286167D01*
X105463753Y-82238239D01*
X105611652Y-82120208D01*
X105739485Y-82146004D01*
X105807980Y-82291212D01*
X105800278Y-82447444D01*
X105798403Y-82632292D01*
X105859909Y-82712775D01*
X105948208Y-82664220D01*
X105993382Y-82577667D01*
X106107591Y-82471050D01*
X106273122Y-82462897D01*
X106403995Y-82552569D01*
X106417926Y-82580820D01*
X106404215Y-82736457D01*
X106320333Y-82874000D01*
X106225959Y-83043065D01*
X106222741Y-83167180D01*
X106338429Y-83279545D01*
X106514045Y-83278654D01*
X106689248Y-83170448D01*
X106733467Y-83116870D01*
X106884316Y-82995327D01*
X107031315Y-83005794D01*
X107118520Y-83136434D01*
X107124667Y-83199642D01*
X107089283Y-83352559D01*
X106968666Y-83469613D01*
X106741122Y-83559825D01*
X106384955Y-83632218D01*
X105950008Y-83688117D01*
X105384368Y-83765521D01*
X104915939Y-83860823D01*
X104568360Y-83968092D01*
X104365267Y-84081398D01*
X104359202Y-84087243D01*
X104379805Y-84171895D01*
X104486853Y-84323622D01*
X104639815Y-84497463D01*
X104798167Y-84648458D01*
X104921378Y-84731645D01*
X104944588Y-84736667D01*
X105054506Y-84782008D01*
X105248925Y-84898114D01*
X105485055Y-85055103D01*
X105720105Y-85223097D01*
X105911285Y-85372216D01*
X106015806Y-85472580D01*
X106024000Y-85490403D01*
X106087452Y-85643301D01*
X106237719Y-85820102D01*
X106414664Y-85960645D01*
X106540037Y-86006667D01*
X106687052Y-85952355D01*
X106903052Y-85811149D01*
X107103141Y-85646833D01*
X107421498Y-85350228D01*
X107632146Y-85127813D01*
X107760084Y-84948599D01*
X107830309Y-84781596D01*
X107844073Y-84728317D01*
X107935017Y-84536341D01*
X108104974Y-84310845D01*
X108186912Y-84224875D01*
X108359227Y-84039053D01*
X108464284Y-83889503D01*
X108479334Y-83844180D01*
X108536808Y-83719295D01*
X108648667Y-83593667D01*
X108774557Y-83458187D01*
X108818000Y-83375701D01*
X108758513Y-83263354D01*
X108598633Y-83068604D01*
X108366235Y-82819600D01*
X108089195Y-82544489D01*
X107795386Y-82271418D01*
X107512683Y-82028536D01*
X107381664Y-81925285D01*
X107012119Y-81670198D01*
X106585070Y-81411388D01*
X106214898Y-81215858D01*
X105786749Y-81037502D01*
X105294722Y-80871422D01*
X104791157Y-80731885D01*
X104328391Y-80633159D01*
X103958765Y-80589510D01*
X103913742Y-80588593D01*
X103623816Y-80588000D01*
X99928405Y-80588000D01*
X100136177Y-80487057D01*
X100357750Y-80372007D01*
X100466917Y-80267235D01*
X100500172Y-80110715D01*
X100495448Y-79876467D01*
X100500525Y-79596102D01*
X100547054Y-79463352D01*
X100587255Y-79446870D01*
X100726403Y-79381235D01*
X100762330Y-79337961D01*
X100842290Y-79280383D01*
X100988403Y-79314457D01*
X101097909Y-79365329D01*
X101290859Y-79496512D01*
X101362451Y-79666096D01*
X101367334Y-79757290D01*
X101367334Y-80014844D01*
X101854167Y-79957725D01*
X102220340Y-79910924D01*
X102449949Y-79862627D01*
X102574905Y-79794328D01*
X102627120Y-79687519D01*
X102638506Y-79523694D01*
X102638630Y-79502794D01*
X102663610Y-79248563D01*
X102724943Y-79061939D01*
X102805649Y-78981710D01*
X102857773Y-79002217D01*
X102964736Y-79011233D01*
X103017628Y-78979919D01*
X103185228Y-78949104D01*
X103342257Y-79001820D01*
G37*
%LPC*%
D11*
X163112500Y-72625000D03*
D12*
X160512500Y-66875000D03*
X167512500Y-67925000D03*
D11*
X158350000Y-72625000D03*
D12*
X152600000Y-75225000D03*
X153650000Y-68225000D03*
D11*
X89293500Y-96438000D03*
D12*
X95043500Y-93838000D03*
X93993500Y-100838000D03*
D11*
X129775000Y-53575000D03*
D12*
X132375000Y-59325000D03*
X125375000Y-58275000D03*
D11*
X84531250Y-91675000D03*
D12*
X81931250Y-85925000D03*
X88931250Y-86975000D03*
D11*
X91675000Y-34525000D03*
D12*
X94275000Y-40275000D03*
X87275000Y-39225000D03*
D11*
X196449750Y-96437500D03*
D12*
X202199750Y-93837500D03*
X201149750Y-100837500D03*
D11*
X191687500Y-53575000D03*
D12*
X189087500Y-47825000D03*
X196087500Y-48875000D03*
D11*
X129775000Y-34525000D03*
D12*
X124025000Y-37125000D03*
X125075000Y-30125000D03*
D11*
X86912500Y-72625000D03*
D12*
X84312500Y-66875000D03*
X91312500Y-67925000D03*
D11*
X236931250Y-53575000D03*
D12*
X234331250Y-47825000D03*
X241331250Y-48875000D03*
D11*
X91675000Y-72625000D03*
D12*
X94275000Y-78375000D03*
X87275000Y-77325000D03*
D11*
X182162500Y-72625000D03*
D12*
X179562500Y-66875000D03*
X186562500Y-67925000D03*
D11*
X205975000Y-34525000D03*
D12*
X208575000Y-40275000D03*
X201575000Y-39225000D03*
D11*
X225025000Y-34525000D03*
D12*
X227625000Y-40275000D03*
X220625000Y-39225000D03*
D11*
X37050250Y-72625000D03*
D12*
X39650250Y-78375000D03*
X32650250Y-77325000D03*
D11*
X144062500Y-72625000D03*
D12*
X141462500Y-66875000D03*
X148462500Y-67925000D03*
D11*
X239312500Y-72625000D03*
D12*
X233562500Y-75225000D03*
X234612500Y-68225000D03*
D13*
X25640000Y-68525000D03*
D14*
X25640000Y-65985000D03*
D11*
X158350250Y-96438000D03*
D12*
X160950250Y-102188000D03*
X153950250Y-101138000D03*
D11*
X244075000Y-72625000D03*
D12*
X246675000Y-78375000D03*
X239675000Y-77325000D03*
D13*
X25640000Y-79285000D03*
D14*
X25640000Y-76745000D03*
D11*
X165494000Y-96438000D03*
D12*
X170194000Y-100838000D03*
X171244000Y-93838000D03*
D11*
X110725000Y-53575000D03*
D12*
X113325000Y-59325000D03*
X106325000Y-58275000D03*
D11*
X72625000Y-72625000D03*
D12*
X75225000Y-78375000D03*
X68225000Y-77325000D03*
D11*
X205975000Y-72625000D03*
D12*
X208575000Y-78375000D03*
X201575000Y-77325000D03*
D11*
X148825000Y-34525000D03*
D12*
X143075000Y-37125000D03*
X144125000Y-30125000D03*
D11*
X129775000Y-72625000D03*
D12*
X132375000Y-78375000D03*
X125375000Y-77325000D03*
D11*
X217881250Y-91675000D03*
D12*
X215281250Y-85925000D03*
X222281250Y-86975000D03*
D11*
X53575000Y-72625000D03*
D12*
X56175000Y-78375000D03*
X49175000Y-77325000D03*
D11*
X86912250Y-96437500D03*
D12*
X92662250Y-93837500D03*
X91612250Y-100837500D03*
D11*
X110725000Y-34525000D03*
D12*
X113325000Y-40275000D03*
X106325000Y-39225000D03*
D11*
X244075000Y-53575000D03*
D12*
X246675000Y-59325000D03*
X239675000Y-58275000D03*
D11*
X82149500Y-96438000D03*
D12*
X84749500Y-102188000D03*
X77749500Y-101138000D03*
D11*
X177400000Y-72625000D03*
D12*
X171650000Y-75225000D03*
X172700000Y-68225000D03*
D13*
X139310000Y-20895000D03*
D14*
X139310000Y-18355000D03*
D11*
X77387500Y-53575000D03*
D12*
X74787500Y-47825000D03*
X81787500Y-48875000D03*
D13*
X144700000Y-20885000D03*
D14*
X144700000Y-18345000D03*
D11*
X115487500Y-53575000D03*
D12*
X112887500Y-47825000D03*
X119887500Y-48875000D03*
D11*
X244075000Y-34525000D03*
D12*
X246675000Y-40275000D03*
X239675000Y-39225000D03*
D11*
X151206000Y-96437500D03*
D12*
X146506000Y-92037500D03*
X145456000Y-99037500D03*
D11*
X186925000Y-53575000D03*
D12*
X189525000Y-59325000D03*
X182525000Y-58275000D03*
D11*
X172637500Y-53575000D03*
D12*
X170037500Y-47825000D03*
X177037500Y-48875000D03*
D11*
X210737500Y-53575000D03*
D12*
X208137500Y-47825000D03*
X215137500Y-48875000D03*
D11*
X120250000Y-72625000D03*
D12*
X114500000Y-75225000D03*
X115550000Y-68225000D03*
D11*
X34525000Y-34525000D03*
D12*
X37125000Y-40275000D03*
X30125000Y-39225000D03*
D11*
X186925000Y-34525000D03*
D12*
X189525000Y-40275000D03*
X182525000Y-39225000D03*
D11*
X241693750Y-72625000D03*
D12*
X239093750Y-66875000D03*
X246093750Y-67925000D03*
D11*
X175019000Y-96437500D03*
D12*
X180769000Y-93837500D03*
X179719000Y-100837500D03*
D11*
X34525000Y-72625000D03*
D12*
X37125000Y-78375000D03*
X30125000Y-77325000D03*
D11*
X96437500Y-53575000D03*
D12*
X93837500Y-47825000D03*
X100837500Y-48875000D03*
D11*
X165493750Y-91675000D03*
D12*
X171243750Y-89075000D03*
X170193750Y-96075000D03*
D11*
X110725000Y-72625000D03*
D12*
X113325000Y-78375000D03*
X106325000Y-77325000D03*
D11*
X198831250Y-91675000D03*
D12*
X196231250Y-85925000D03*
X203231250Y-86975000D03*
D11*
X205975000Y-53575000D03*
D12*
X208575000Y-59325000D03*
X201575000Y-58275000D03*
D11*
X101200000Y-72625000D03*
D12*
X95450000Y-75225000D03*
X96500000Y-68225000D03*
D11*
X194068750Y-91675000D03*
D12*
X198468750Y-86975000D03*
X191468750Y-85925000D03*
D11*
X53575000Y-53575000D03*
D12*
X56175000Y-59325000D03*
X49175000Y-58275000D03*
D11*
X167875000Y-34525000D03*
D12*
X170475000Y-40275000D03*
X163475000Y-39225000D03*
D11*
X215500000Y-72625000D03*
D12*
X209750000Y-75225000D03*
X210800000Y-68225000D03*
D11*
X120250250Y-96438000D03*
D12*
X126000250Y-93838000D03*
X124950250Y-100838000D03*
D11*
X39287500Y-72625000D03*
D12*
X43987500Y-77025000D03*
X45037500Y-70025000D03*
D11*
X82150000Y-72625000D03*
D12*
X76400000Y-75225000D03*
X77450000Y-68225000D03*
D11*
X186925000Y-72625000D03*
D12*
X189525000Y-78375000D03*
X182525000Y-77325000D03*
D11*
X125012500Y-72625000D03*
D12*
X122412500Y-66875000D03*
X129412500Y-67925000D03*
D11*
X67862500Y-72625000D03*
D12*
X65262500Y-66875000D03*
X72262500Y-67925000D03*
D11*
X105962500Y-72625000D03*
D12*
X103362500Y-66875000D03*
X110362500Y-67925000D03*
D11*
X196450000Y-72625000D03*
D12*
X190700000Y-75225000D03*
X191750000Y-68225000D03*
D11*
X220262500Y-72625000D03*
D12*
X217662500Y-66875000D03*
X224662500Y-67925000D03*
D11*
X41668750Y-72625000D03*
D12*
X39068750Y-66875000D03*
X46068750Y-67925000D03*
D11*
X153587500Y-53575000D03*
D12*
X150987500Y-47825000D03*
X157987500Y-48875000D03*
D11*
X167875000Y-72625000D03*
D12*
X170475000Y-78375000D03*
X163475000Y-77325000D03*
D11*
X225025000Y-53575000D03*
D12*
X227625000Y-59325000D03*
X220625000Y-58275000D03*
D11*
X91675000Y-53575000D03*
D12*
X94275000Y-59325000D03*
X87275000Y-58275000D03*
D11*
X72625000Y-53575000D03*
D12*
X75225000Y-59325000D03*
X68225000Y-58275000D03*
D11*
X241693750Y-91675000D03*
D12*
X244293750Y-97425000D03*
X237293750Y-96375000D03*
D11*
X220262500Y-91675000D03*
D12*
X222862500Y-97425000D03*
X215862500Y-96375000D03*
D11*
X167875000Y-53575000D03*
D12*
X170475000Y-59325000D03*
X163475000Y-58275000D03*
D11*
X34525000Y-53575000D03*
D12*
X37125000Y-59325000D03*
X30125000Y-58275000D03*
D13*
X25650000Y-73915000D03*
D14*
X25650000Y-71375000D03*
D11*
X148825000Y-53575000D03*
D12*
X151425000Y-59325000D03*
X144425000Y-58275000D03*
D11*
X160731250Y-91675000D03*
D12*
X158131250Y-85925000D03*
X165131250Y-86975000D03*
D13*
X133940000Y-20905000D03*
D14*
X133940000Y-18365000D03*
D11*
X36906250Y-91675000D03*
D12*
X39506250Y-97425000D03*
X32506250Y-96375000D03*
D11*
X151206250Y-91675000D03*
D12*
X145456250Y-94275000D03*
X146506250Y-87275000D03*
D11*
X117868750Y-91675000D03*
D12*
X115268750Y-85925000D03*
X122268750Y-86975000D03*
D11*
X63100000Y-72625000D03*
D12*
X57350000Y-75225000D03*
X58400000Y-68225000D03*
D11*
X134537500Y-53575000D03*
D12*
X131937500Y-47825000D03*
X138937500Y-48875000D03*
D11*
X79768750Y-91675000D03*
D12*
X74018750Y-94275000D03*
X75068750Y-87275000D03*
D11*
X36906250Y-53575000D03*
D12*
X34306250Y-47825000D03*
X41306250Y-48875000D03*
D11*
X139300000Y-72625000D03*
D12*
X133550000Y-75225000D03*
X134600000Y-68225000D03*
D11*
X117869000Y-96437500D03*
D12*
X112119000Y-99037500D03*
X113169000Y-92037500D03*
D11*
X58337500Y-53575000D03*
D12*
X55737500Y-47825000D03*
X62737500Y-48875000D03*
D11*
X60718750Y-91675000D03*
D12*
X63318750Y-97425000D03*
X56318750Y-96375000D03*
D11*
X148825000Y-72625000D03*
D12*
X151425000Y-78375000D03*
X144425000Y-77325000D03*
D11*
X225025000Y-72625000D03*
D12*
X227625000Y-78375000D03*
X220625000Y-77325000D03*
D11*
X53575000Y-34525000D03*
D12*
X56175000Y-40275000D03*
X49175000Y-39225000D03*
D11*
X189306500Y-96438000D03*
D12*
X183556500Y-99038000D03*
X184606500Y-92038000D03*
D11*
X241693750Y-82150000D03*
D12*
X244293750Y-87900000D03*
X237293750Y-86850000D03*
D11*
X201212500Y-72625000D03*
D12*
X198612500Y-66875000D03*
X205612500Y-67925000D03*
D11*
X175018750Y-91675000D03*
D12*
X172418750Y-85925000D03*
X179418750Y-86975000D03*
D11*
X58337500Y-91675000D03*
D12*
X55737500Y-85925000D03*
X62737500Y-86975000D03*
D11*
X72625000Y-34525000D03*
D12*
X75225000Y-40275000D03*
X68225000Y-39225000D03*
D15*
X176100000Y-37410000D03*
D16*
X178100000Y-37410000D03*
D14*
X134400000Y-26920000D03*
X136940000Y-26920000D03*
D17*
X139480000Y-26920000D03*
X142020000Y-26920000D03*
D14*
X144560000Y-26920000D03*
X147100000Y-26920000D03*
X149640000Y-26920000D03*
X152180000Y-26920000D03*
X154720000Y-26920000D03*
X157260000Y-26920000D03*
X159800000Y-26920000D03*
X162340000Y-26920000D03*
D18*
X133130000Y-42160000D03*
D17*
X136940000Y-42160000D03*
D14*
X139480000Y-42160000D03*
X142020000Y-42160000D03*
X144560000Y-42160000D03*
X147100000Y-42160000D03*
X149640000Y-42160000D03*
X152180000Y-42160000D03*
X154720000Y-42160000D03*
X157260000Y-42160000D03*
X159800000Y-42160000D03*
X162340000Y-42160000D03*
X157260000Y-29460000D03*
X157260000Y-32000000D03*
X157260000Y-34540000D03*
D17*
X131860000Y-26920000D03*
D14*
X131860000Y-42160000D03*
D19*
X178430000Y-29810000D03*
X175430000Y-29810000D03*
%LPD*%
M02*
