M48
; DRILL file {KiCad 7.0.11-7.0.11~ubuntu22.04.1} date Tue 14 May 2024 18:34:21 CEST
; FORMAT={-:-/ absolute / metric / decimal}
; #@! TF.CreationDate,2024-05-14T18:34:21+02:00
; #@! TF.GenerationSoftware,Kicad,Pcbnew,7.0.11-7.0.11~ubuntu22.04.1
; #@! TF.FileFunction,NonPlated,1,2,NPTH
FMAT,2
METRIC
; #@! TA.AperFunction,NonPlated,NPTH,ComponentDrill
T1C0.850
; #@! TA.AperFunction,NonPlated,NPTH,ComponentDrill
T2C5.000
%
G90
G05
T1
X175.43Y-29.81
X178.43Y-29.81
T2
X34.525Y-34.525
X34.525Y-53.575
X34.525Y-72.625
X36.906Y-53.575
X36.906Y-91.675
X37.05Y-72.625
X39.288Y-72.625
X41.669Y-72.625
X53.575Y-34.525
X53.575Y-53.575
X53.575Y-72.625
X58.337Y-53.575
X58.337Y-91.675
X60.719Y-91.675
X63.1Y-72.625
X67.862Y-72.625
X72.625Y-34.525
X72.625Y-53.575
X72.625Y-72.625
X77.388Y-53.575
X79.769Y-91.675
X82.15Y-96.438
X82.15Y-72.625
X84.531Y-91.675
X86.912Y-96.438
X86.912Y-72.625
X89.293Y-96.438
X91.675Y-34.525
X91.675Y-53.575
X91.675Y-72.625
X96.438Y-53.575
X101.2Y-72.625
X105.962Y-72.625
X110.725Y-34.525
X110.725Y-53.575
X110.725Y-72.625
X115.487Y-53.575
X117.869Y-91.675
X117.869Y-96.438
X120.25Y-72.625
X120.25Y-96.438
X125.012Y-72.625
X129.775Y-34.525
X129.775Y-53.575
X129.775Y-72.625
X134.537Y-53.575
X139.3Y-72.625
X144.062Y-72.625
X148.825Y-34.525
X148.825Y-53.575
X148.825Y-72.625
X151.206Y-96.438
X151.206Y-91.675
X153.588Y-53.575
X158.35Y-72.625
X158.35Y-96.438
X160.731Y-91.675
X163.112Y-72.625
X165.494Y-91.675
X165.494Y-96.438
X167.875Y-34.525
X167.875Y-53.575
X167.875Y-72.625
X172.637Y-53.575
X175.019Y-91.675
X175.019Y-96.438
X177.4Y-72.625
X182.162Y-72.625
X186.925Y-34.525
X186.925Y-53.575
X186.925Y-72.625
X189.306Y-96.438
X191.688Y-53.575
X194.069Y-91.675
X196.45Y-96.438
X196.45Y-72.625
X198.831Y-91.675
X201.212Y-72.625
X205.975Y-34.525
X205.975Y-53.575
X205.975Y-72.625
X210.737Y-53.575
X215.5Y-72.625
X217.881Y-91.675
X220.262Y-72.625
X220.262Y-91.675
X225.025Y-34.525
X225.025Y-53.575
X225.025Y-72.625
X236.931Y-53.575
X239.312Y-72.625
X241.694Y-72.625
X241.694Y-82.15
X241.694Y-91.675
X244.075Y-34.525
X244.075Y-53.575
X244.075Y-72.625
M30
