M48
; DRILL file {KiCad 7.0.11-7.0.11~ubuntu22.04.1} date Tue 14 May 2024 18:34:21 CEST
; FORMAT={-:-/ absolute / metric / decimal}
; #@! TF.CreationDate,2024-05-14T18:34:21+02:00
; #@! TF.GenerationSoftware,Kicad,Pcbnew,7.0.11-7.0.11~ubuntu22.04.1
; #@! TF.FileFunction,Plated,1,2,PTH
FMAT,2
METRIC
; #@! TA.AperFunction,Plated,PTH,ViaDrill
T1C0.300
; #@! TA.AperFunction,Plated,PTH,ComponentDrill
T2C0.750
; #@! TA.AperFunction,Plated,PTH,ComponentDrill
T3C0.900
; #@! TA.AperFunction,Plated,PTH,ComponentDrill
T4C1.000
; #@! TA.AperFunction,Plated,PTH,ComponentDrill
T5C1.500
%
G90
G05
T1
X27.43Y-42.97
X28.03Y-43.77
X28.63Y-44.57
X29.83Y-42.97
X29.83Y-43.77
X29.83Y-44.57
X74.168Y-97.628
X74.31Y-98.69
X75.95Y-97.65
X77.11Y-98.38
X78.278Y-99.382
X79.653Y-100.757
X79.99Y-99.288
X81.251Y-100.659
X113.925Y-43.76
X113.925Y-44.96
X114.498Y-44.36
X131.49Y-65.39
X141.95Y-22.1
X142.02Y-31.075
X142.02Y-32.275
X144.7Y-38.3
X146.78Y-40.54
X147.042Y-38.052
X147.09Y-45.675
X147.1Y-30.45
X147.1Y-46.875
X149.04Y-29.44
X149.04Y-30.8
X150.48Y-30.8
X150.5Y-29.45
X151.15Y-32.39
X158.79Y-64.855
X159.4Y-63.23
X159.76Y-29.07
X160.56Y-29.081
X164.43Y-37.48
X165.1Y-38.08
X172.271Y-71.551
X179.47Y-61.51
X180.27Y-61.51
X180.33Y-45.675
X183.933Y-63.353
X184.499Y-62.787
X184.79Y-65.42
X185.27Y-103.31
X185.609Y-65.391
X186.89Y-103.138
X188.925Y-44.16
X190.125Y-44.14
X204.876Y-62.176
X205.77Y-63.08
X208.41Y-65.72
T2
X176.1Y-37.41
X178.1Y-37.41
T3
X25.64Y-65.985
X25.64Y-68.525
X25.64Y-76.745
X25.64Y-79.285
X25.65Y-71.375
X25.65Y-73.915
X133.94Y-18.365
X133.94Y-20.905
X139.31Y-18.355
X139.31Y-20.895
X144.7Y-18.345
X144.7Y-20.885
T4
X131.86Y-26.92
X131.86Y-42.16
X134.4Y-26.92
X134.4Y-42.16
X136.94Y-26.92
X136.94Y-42.16
X139.48Y-26.92
X139.48Y-42.16
X142.02Y-26.92
X142.02Y-42.16
X144.56Y-26.92
X144.56Y-42.16
X147.1Y-26.92
X147.1Y-42.16
X149.64Y-26.92
X149.64Y-42.16
X152.18Y-26.92
X152.18Y-42.16
X154.72Y-26.92
X154.72Y-42.16
X157.26Y-26.92
X157.26Y-29.46
X157.26Y-32.0
X157.26Y-34.54
X157.26Y-42.16
X159.8Y-26.92
X159.8Y-42.16
X162.34Y-26.92
X162.34Y-42.16
X212.762Y-89.175
X212.762Y-91.675
X212.762Y-94.175
X227.262Y-89.175
X227.262Y-94.175
T5
X30.125Y-39.225
X30.125Y-58.275
X30.125Y-77.325
X32.506Y-96.375
X32.65Y-77.325
X34.306Y-47.825
X37.125Y-40.275
X37.125Y-59.325
X37.125Y-78.375
X39.069Y-66.875
X39.506Y-97.425
X39.65Y-78.375
X41.306Y-48.875
X43.987Y-77.025
X45.038Y-70.025
X46.069Y-67.925
X49.175Y-39.225
X49.175Y-58.275
X49.175Y-77.325
X55.737Y-47.825
X55.737Y-85.925
X56.175Y-40.275
X56.175Y-59.325
X56.175Y-78.375
X56.319Y-96.375
X57.35Y-75.225
X58.4Y-68.225
X62.737Y-48.875
X62.737Y-86.975
X63.319Y-97.425
X65.263Y-66.875
X68.225Y-39.225
X68.225Y-58.275
X68.225Y-77.325
X72.263Y-67.925
X74.019Y-94.275
X74.787Y-47.825
X75.069Y-87.275
X75.225Y-40.275
X75.225Y-59.325
X75.225Y-78.375
X76.4Y-75.225
X77.45Y-68.225
X77.749Y-101.138
X81.787Y-48.875
X81.931Y-85.925
X84.312Y-66.875
X84.749Y-102.188
X87.275Y-39.225
X87.275Y-58.275
X87.275Y-77.325
X88.931Y-86.975
X91.312Y-67.925
X91.612Y-100.837
X92.662Y-93.837
X93.837Y-47.825
X93.993Y-100.838
X94.275Y-40.275
X94.275Y-59.325
X94.275Y-78.375
X95.043Y-93.838
X95.45Y-75.225
X96.5Y-68.225
X100.837Y-48.875
X103.362Y-66.875
X106.325Y-39.225
X106.325Y-58.275
X106.325Y-77.325
X110.362Y-67.925
X112.119Y-99.037
X112.887Y-47.825
X113.169Y-92.037
X113.325Y-40.275
X113.325Y-59.325
X113.325Y-78.375
X114.5Y-75.225
X115.269Y-85.925
X115.55Y-68.225
X119.887Y-48.875
X122.269Y-86.975
X122.412Y-66.875
X124.025Y-37.125
X124.95Y-100.838
X125.075Y-30.125
X125.375Y-58.275
X125.375Y-77.325
X126.0Y-93.838
X129.412Y-67.925
X131.938Y-47.825
X132.375Y-59.325
X132.375Y-78.375
X133.55Y-75.225
X134.6Y-68.225
X138.938Y-48.875
X141.463Y-66.875
X143.075Y-37.125
X144.125Y-30.125
X144.425Y-58.275
X144.425Y-77.325
X145.456Y-99.037
X145.456Y-94.275
X146.506Y-92.037
X146.506Y-87.275
X148.463Y-67.925
X150.987Y-47.825
X151.425Y-59.325
X151.425Y-78.375
X152.6Y-75.225
X153.65Y-68.225
X153.95Y-101.138
X157.987Y-48.875
X158.131Y-85.925
X160.512Y-66.875
X160.95Y-102.188
X163.475Y-39.225
X163.475Y-58.275
X163.475Y-77.325
X165.131Y-86.975
X167.512Y-67.925
X170.037Y-47.825
X170.194Y-96.075
X170.194Y-100.838
X170.475Y-40.275
X170.475Y-59.325
X170.475Y-78.375
X171.244Y-89.075
X171.244Y-93.838
X171.65Y-75.225
X172.419Y-85.925
X172.7Y-68.225
X177.037Y-48.875
X179.419Y-86.975
X179.562Y-66.875
X179.719Y-100.837
X180.769Y-93.837
X182.525Y-39.225
X182.525Y-58.275
X182.525Y-77.325
X183.556Y-99.038
X184.606Y-92.038
X186.562Y-67.925
X189.087Y-47.825
X189.525Y-40.275
X189.525Y-59.325
X189.525Y-78.375
X190.7Y-75.225
X191.469Y-85.925
X191.75Y-68.225
X196.087Y-48.875
X196.231Y-85.925
X198.469Y-86.975
X198.612Y-66.875
X201.15Y-100.837
X201.575Y-39.225
X201.575Y-58.275
X201.575Y-77.325
X202.2Y-93.837
X203.231Y-86.975
X205.612Y-67.925
X208.137Y-47.825
X208.575Y-40.275
X208.575Y-59.325
X208.575Y-78.375
X209.75Y-75.225
X210.8Y-68.225
X215.137Y-48.875
X215.281Y-85.925
X215.862Y-96.375
X217.662Y-66.875
X220.625Y-39.225
X220.625Y-58.275
X220.625Y-77.325
X222.281Y-86.975
X222.862Y-97.425
X224.662Y-67.925
X227.625Y-40.275
X227.625Y-59.325
X227.625Y-78.375
X233.562Y-75.225
X234.331Y-47.825
X234.612Y-68.225
X237.294Y-86.85
X237.294Y-96.375
X239.094Y-66.875
X239.675Y-39.225
X239.675Y-58.275
X239.675Y-77.325
X241.331Y-48.875
X244.294Y-87.9
X244.294Y-97.425
X246.094Y-67.925
X246.675Y-40.275
X246.675Y-59.325
X246.675Y-78.375
M30
